<svg width="20" height="20" viewBox="0 0 20 20" fill="none" xmlns="http://www.w3.org/2000/svg">
<path d="M12.2222 18.3333V10.8333L18.5944 4.44439C18.6891 4.34968 18.764 4.23701 18.8145 4.11299C18.8651 3.98897 18.8904 3.85609 18.8889 3.72217V2.77772C18.8889 2.63038 18.8303 2.48907 18.7261 2.38489C18.622 2.2807 18.4806 2.22217 18.3333 2.22217H1.66664C1.5193 2.22217 1.37799 2.2807 1.2738 2.38489C1.16962 2.48907 1.11108 2.63038 1.11108 2.77772V3.7055C1.11119 3.83672 1.13726 3.96661 1.18779 4.08771C1.23833 4.2088 1.31233 4.31869 1.40553 4.41106L7.77775 10.8777V16.5444L12.2222 18.3333Z" fill="#68717A"/>
<path d="M18.6 2.22217H1.37777C1.30506 2.22778 1.23717 2.26067 1.18771 2.31425C1.13825 2.36783 1.11089 2.43814 1.1111 2.51106V3.46661C1.11043 3.56455 1.12924 3.66165 1.16644 3.75226C1.20364 3.84286 1.25848 3.92517 1.32777 3.99439L7.99443 10.6611V16.2166L12.0222 18.2222V10.6499L18.6889 3.98328C18.8164 3.84571 18.8878 3.66532 18.8889 3.47772V2.51106C18.8889 2.43444 18.8584 2.36096 18.8043 2.30678C18.7501 2.2526 18.6766 2.22217 18.6 2.22217Z" fill="#68717A"/>
</svg>
