<svg width="94" height="75" viewBox="0 0 94 75" fill="none" xmlns="http://www.w3.org/2000/svg">
<g clip-path="url(#clip0_66_1541)">
<path d="M50.6066 68.795C49.6917 69.0395 48.7239 69.3431 47.8543 69.669C47.5897 69.7653 47.5897 69.9431 47.8468 70.0616C50.0546 71.0615 52.0735 72.3652 53.8276 74.0984C54.2208 74.5205 56.6706 72.7503 55.6499 71.8615C54.8333 71.0986 53.3664 69.9357 51.5593 68.9136C51.3098 68.7728 50.8788 68.721 50.6066 68.795ZM54.4628 72.854C54.6972 72.5059 55.0147 72.2022 55.3096 72.3207C56.1187 72.6688 53.1396 74.8168 54.4628 72.854Z" fill="#57AA7D"/>
<path d="M38.849 67.4395C40.1571 67.758 40.6183 67.832 41.7147 68.0765C41.9944 68.1431 42.4179 68.0839 42.6674 67.9505C43.5369 67.4913 44.4367 67.0765 45.3743 66.7136C45.6389 66.6099 45.6389 66.4618 45.3592 66.3803C43.2118 65.7655 41.6844 65.5655 39.4161 65.0767C39.1363 65.0174 39.0002 64.7582 39.0985 64.4915C40.4066 60.9214 39.4539 58.2846 36.7395 56.181C36.5958 56.0699 36.4295 55.9514 36.2707 55.8477C36.0363 55.6922 35.7565 55.6922 35.6582 55.8403C35.5902 55.944 35.5221 56.0551 35.4843 56.1069C33.8511 58.7068 33.1026 61.2918 34.9097 63.5657C35.0836 63.7879 35.0231 63.8768 34.7509 63.7879C33.7906 63.462 32.4372 62.9805 30.8871 62.2695C30.6301 62.151 30.5545 61.8695 30.7057 61.6325C32.7396 58.5142 32.5204 55.5218 30.4713 52.9812C30.4184 52.9146 30.2747 52.7442 30.1235 52.5739C29.9344 52.3591 29.6018 52.3517 29.39 52.5442C27.9837 53.8627 26.5546 55.7292 26.4563 57.5957C26.4185 58.3957 26.6302 59.1882 27.0007 59.9215C27.1293 60.1733 27.0537 60.2474 26.8117 60.0992C25.549 59.3215 24.2409 58.4031 23.258 57.6105C23.0387 57.4328 23.0387 57.1365 23.2504 56.9513C26.0178 54.4626 26.8495 51.3739 25.0575 47.9594C24.929 47.7075 24.6038 47.6186 24.3543 47.752C23.326 48.3223 22.1314 49.1815 21.3601 50.0481C20.1881 51.3665 19.7798 52.7961 20.2411 54.5441C20.3091 54.8107 20.226 54.87 20.0294 54.6626C18.9708 53.5738 17.9727 52.4183 17.0503 51.2036C16.8764 50.9814 16.952 50.6999 17.2091 50.5666C20.846 48.6778 22.1087 45.641 21.2769 42.219C21.2543 42.1301 21.2316 42.0487 21.2165 41.982C21.1787 41.8487 20.9972 41.782 20.8233 41.8265C20.7325 41.8487 20.6343 41.8783 20.5133 41.9153C17.1561 42.8782 14.8349 44.4855 14.971 47.7075C14.9861 47.989 14.8878 48.0186 14.7441 47.7742C13.9427 46.4187 13.2168 45.004 12.5892 43.5078C12.4834 43.2486 12.6195 42.9968 12.8992 42.9375C17.0427 41.982 19.0691 39.1526 19.0237 35.7824C19.0237 35.501 18.7742 35.2788 18.4869 35.2862C14.8651 35.3751 12.0599 36.4713 11.4928 39.8414C11.4475 40.1155 11.3567 40.1303 11.2811 39.8562C10.7745 38.1527 10.4192 36.5528 10.1772 34.9455C10.1318 34.6714 10.336 34.464 10.6233 34.464C14.8575 34.5677 17.5342 32.4345 18.4188 28.9607C18.4869 28.6867 18.3886 28.4274 18.2147 28.3904C18.124 28.3682 18.0181 28.3459 17.8971 28.3237C14.0939 27.5534 11.1904 28.1015 9.88989 31.6938C9.88233 31.7235 9.87476 31.7457 9.8672 31.7753C9.85208 31.8198 9.8294 31.6346 9.81427 31.3531C9.72354 29.5459 9.76135 27.8126 9.93525 26.035C9.9655 25.7535 10.2075 25.6054 10.4797 25.6795C12.9143 26.3461 15.712 26.2276 17.6476 24.5018C18.313 23.887 18.9708 23.1833 19.5001 22.2056C19.6362 21.9612 19.6059 21.6871 19.4472 21.6057C19.3489 21.5538 19.2506 21.5094 19.1598 21.4649C15.9161 19.9465 12.99 19.6206 10.8577 22.4278C10.7594 22.5612 10.6611 22.6945 10.5704 22.8278C10.4192 23.0574 10.3587 23.0278 10.4116 22.7537C10.8123 20.6428 11.2963 19.0059 11.9087 17.3023C12.007 17.0356 12.2792 16.9541 12.5212 17.0949C15.9312 19.0577 19.5984 18.8355 22.2297 15.932C22.4187 15.7246 22.4565 15.4505 22.3204 15.332C22.2523 15.2728 22.1692 15.2061 22.0709 15.1246C18.9103 12.5619 15.8405 11.8434 13.1639 14.6358C12.9673 14.8432 12.9143 14.8061 13.0278 14.5469C13.7083 13.0285 14.4039 11.8138 15.228 10.4731C15.3717 10.2361 15.7195 9.97686 15.9917 9.89538C20.5662 8.49548 22.1238 6.71042 23.1521 4.68094C23.8704 3.25882 24.3543 1.54042 24.566 0.540489C24.6265 0.266435 24.4299 0.00719354 24.1502 -0.0150271C22.0709 -0.163165 17.7837 0.399758 15.7649 4.39207C15.1373 5.65865 14.7593 7.42149 14.9029 9.14729C14.9256 9.42875 14.8349 9.83613 14.6836 10.0732C14.177 10.8435 13.2168 12.3471 12.3699 14.0951C12.249 14.3469 12.1809 14.3321 12.2036 14.0506C12.4909 10.9175 11.7726 8.55474 8.7784 6.94744C8.30205 6.69561 7.70472 6.43637 7.15276 6.27342C6.88056 6.19194 6.54787 6.34749 6.43445 6.60673C5.50443 8.65103 4.97515 11.5767 6.07152 13.5914C6.99397 15.2283 8.88426 16.0653 10.7821 16.4357C11.0619 16.4875 11.2055 16.7319 11.1072 16.9986C10.3587 18.9244 9.85208 20.628 9.4589 22.4204C9.39841 22.6945 9.3228 22.6945 9.26987 22.413C9.04304 21.1761 8.67254 19.9465 7.89375 18.954C6.6386 17.3541 4.41563 16.4801 2.50266 16.4283C2.21534 16.4209 1.93558 16.6579 1.88265 16.9319C1.48191 19.1762 1.7163 22.1167 3.25877 23.7907C4.54417 25.1388 6.51006 25.5017 8.40034 25.435C8.68767 25.4276 8.88426 25.6276 8.84645 25.9091C8.62718 27.6497 8.53644 29.3755 8.57425 31.2272C8.58181 31.5087 8.5062 31.5235 8.38522 31.2717C6.82007 27.9534 3.99977 26.7757 0.635062 27.3608C0.506523 27.4053 0.393106 27.4275 0.302372 27.4423C0.120905 27.4793 -0.0151952 27.746 -7.29415e-05 28.0274C0.166272 30.2865 1.14922 33.1678 3.03194 34.3529C4.57441 35.3454 6.52518 35.2492 8.30205 34.7751C8.57425 34.701 8.82377 34.8566 8.85401 35.1306C9.05816 36.7602 9.36817 38.3675 9.81427 40.0414C9.88233 40.3081 9.80671 40.3525 9.61769 40.1377C8.93718 39.3674 8.11302 38.6637 7.19812 38.2415C5.09613 37.2786 2.62364 37.8193 1.21727 38.4786C0.960191 38.5971 0.82409 38.9378 0.914824 39.197C1.08873 39.7007 1.4063 40.508 1.84484 41.271C3.94684 44.8855 6.75202 45.878 10.5099 43.856C10.7594 43.7226 11.0392 43.8189 11.1375 44.0782C11.7046 45.5225 12.3926 46.9743 13.1563 48.3667C13.2924 48.6112 13.2168 48.6778 12.9824 48.5223C10.1999 46.7224 7.37203 47.0261 4.79368 48.9963C4.70295 49.0704 4.61222 49.1445 4.53661 49.2037C4.39294 49.3222 4.40807 49.6185 4.55929 49.8555C4.8693 50.3222 5.38345 51.0332 5.97322 51.648C8.89182 54.633 11.8255 54.9292 14.9256 52.1739C15.1373 51.9887 15.4322 52.0109 15.591 52.2405C16.3547 53.3071 17.3376 54.5367 18.4264 55.7292C18.6154 55.9366 18.5549 56.0255 18.2827 55.9366C15.9842 55.2255 13.8897 55.5218 11.8482 57.2772C11.3643 57.692 10.9484 58.1512 10.646 58.5438C10.4721 58.766 10.5099 59.1289 10.7216 59.3141C11.2282 59.7733 12.0599 60.4326 12.5363 60.714C16.1278 62.8842 18.9708 62.5361 21.2845 59.2104C21.4433 58.9808 21.7382 58.9364 21.9575 59.1215C22.8723 59.8919 24.1577 60.8696 25.3902 61.6843C25.6246 61.8399 25.5868 61.9436 25.307 61.9362C23.0387 61.8843 21.1787 62.6398 19.674 64.8026C19.3111 65.3211 19.0237 65.8766 18.8347 66.3136C18.7213 66.5729 18.8498 66.9136 19.0993 67.0469C19.7723 67.4247 20.483 67.7135 21.224 67.9728C25.1407 69.2616 27.8551 68.1209 29.2615 64.4915C29.3598 64.2323 29.6396 64.1212 29.8966 64.2471C31.0837 64.8322 32.3464 65.3655 33.6318 65.847C33.8965 65.9433 33.8889 66.0618 33.6092 66.1285C31.545 66.6247 30.0025 67.832 29.1103 70.1726C28.8683 70.8096 28.7322 71.4244 28.6642 71.8392C28.6188 72.1132 28.823 72.4169 29.0952 72.491C29.7908 72.6761 30.5998 72.8317 31.3257 72.8761C35.3785 73.1724 37.6619 71.5207 38.2593 67.8098C38.3197 67.5432 38.5693 67.3728 38.849 67.4395Z" fill="#57AA7D"/>
<path d="M85.5391 31.5087C85.4181 31.7606 85.3425 31.7458 85.35 31.4643C85.4105 29.5385 85.3198 27.7386 85.1005 25.924C85.0703 25.6499 85.2669 25.4425 85.5542 25.4573C87.4747 25.5388 89.4784 25.1759 90.7714 23.813C92.2987 22.1613 92.5558 19.2207 92.1475 16.9542C92.1021 16.6802 91.8148 16.4431 91.5275 16.458C89.7506 16.5246 86.4993 17.3468 85.2895 20.5021C84.9644 21.3465 84.8359 21.902 84.7225 22.6279C84.6771 22.9019 84.6015 22.9094 84.541 22.6353C84.1327 20.6947 83.6185 18.9911 82.87 17.0431C82.7717 16.7839 82.9153 16.5394 83.1951 16.4876C85.1005 16.1246 87.021 15.2877 87.9586 13.6359C89.0323 11.6583 88.5559 8.7622 87.5957 6.65124C87.4823 6.39941 87.1496 6.23645 86.8698 6.31793C84.6015 6.94752 82.4239 8.69554 81.9173 11.1694C81.7056 12.1768 81.7282 13.236 81.8341 14.2433C81.8643 14.5248 81.8039 14.5396 81.6829 14.2877C80.957 12.7619 80.1782 11.4657 79.3389 10.1695C79.1877 9.93249 79.097 9.5177 79.1196 9.24365C79.3918 6.392 78.3409 3.36258 75.8079 1.58493C73.5017 0.00726461 70.9536 -0.00754917 69.8799 0.0517059C69.5926 0.0665197 69.396 0.318354 69.4565 0.592409C69.5624 1.08126 69.759 1.85158 69.9858 2.54783C71.2409 6.42163 73.0783 8.41408 77.9855 9.92508C78.2577 10.0066 78.5979 10.2658 78.7492 10.5028C79.5053 11.7398 80.2387 13.0212 80.8965 14.4803C81.0099 14.7396 80.9494 14.7692 80.7529 14.5692C78.0838 11.8731 75.0366 12.6508 71.9441 15.1618C71.8458 15.2358 71.7702 15.3099 71.6946 15.3691C71.5585 15.4802 71.5963 15.7617 71.7854 15.9691C74.2276 18.6652 77.7738 19.2504 81.4485 17.1542C81.698 17.0135 81.9702 17.1024 82.0609 17.369C82.7263 19.2355 83.1573 20.8502 83.4975 22.6131C83.5505 22.8871 83.4749 22.9168 83.3161 22.6797C81.2897 19.7096 78.0687 19.8651 74.7191 21.5465C74.462 21.6724 74.3561 21.9909 74.4922 22.2353C75.0064 23.176 75.6491 23.8871 76.3447 24.5315C78.2652 26.235 81.0175 26.3684 83.4446 25.724C83.7168 25.6499 83.9663 25.8054 83.989 26.0795C84.1478 27.7386 84.1932 29.383 84.11 31.1458C84.0949 31.4273 84.0041 31.4347 83.8907 31.1828C82.507 28.0794 79.7397 27.6127 76.0952 28.346C75.9742 28.3682 75.8684 28.3904 75.7776 28.4127C75.6037 28.4497 75.5054 28.7089 75.581 28.983C75.9818 30.5162 76.8438 32.0791 78.235 33.1012C79.6036 34.0938 81.5392 34.5011 83.2783 34.4863C83.5656 34.4863 83.7622 34.6937 83.7168 34.9678C83.4824 36.4936 83.1497 38.0046 82.6809 39.6119C82.6053 39.8785 82.507 39.8711 82.4465 39.5971C81.7509 36.3899 78.9911 35.39 75.5054 35.3011C75.2181 35.2937 74.9686 35.5233 74.9762 35.7973C74.9837 36.9973 75.3013 38.4712 75.9364 39.5452C76.9799 41.3229 78.9533 42.4191 80.9797 42.9154C81.2594 42.982 81.3956 43.2413 81.2897 43.4931C80.6999 44.8782 80.0194 46.2114 79.2709 47.478C79.1272 47.7224 79.0289 47.6854 79.0214 47.4113C78.9911 44.3449 76.685 42.8413 73.479 41.9228C73.3581 41.8858 73.2598 41.8636 73.169 41.8339C72.9951 41.7895 72.7759 41.9673 72.7078 42.2413C72.4281 43.3524 72.2693 45.3448 73.101 47.0854C73.7966 48.515 75.203 49.7223 76.6623 50.5148C76.9118 50.6481 76.9874 50.937 76.8135 51.1592C76.0649 52.1443 75.0971 53.285 74.0612 54.3516C73.8647 54.5516 73.7664 54.4997 73.8269 54.2257C74.4091 51.374 72.481 49.3964 69.7438 47.8261C69.638 47.7669 69.5397 47.715 69.4641 47.6706C69.3053 47.5891 69.0633 47.715 68.9272 47.9669C67.1882 51.2629 67.8611 54.2923 70.6134 56.8477C70.8175 57.0403 70.8175 57.3366 70.5983 57.5143C69.7665 58.1735 68.5265 59.0698 67.3545 59.8031C67.1126 59.9512 67.0294 59.8697 67.1428 59.6179C68.2619 57.0477 66.7648 54.5738 64.5947 52.5665C64.3906 52.3739 64.0427 52.3814 63.8537 52.5887C63.0976 53.4257 62.281 54.7293 61.9937 55.9885C61.5703 57.9217 62.1373 59.8253 63.1808 61.4918C63.332 61.7288 63.2488 62.0177 62.9918 62.1362C61.8273 62.6621 60.5873 63.151 59.4985 63.5213C59.2263 63.6102 59.1583 63.5139 59.317 63.2769C60.5495 61.5066 60.2622 59.5586 59.2717 57.5069C59.007 56.9588 58.6819 56.4033 58.44 56.0181C58.2887 55.7811 57.9485 55.707 57.7141 55.8626C56.3758 56.744 55.0223 58.2328 54.5762 59.7808C54.1528 61.24 54.3418 62.8547 54.8333 64.3138C54.924 64.5805 54.7804 64.8397 54.5006 64.899C50.6142 65.6989 43.7184 66.5433 37.9568 71.8985C37.3973 72.3799 39.3859 74.5946 40.1723 73.7576C44.8375 69.1876 51.0678 68.2025 55.1282 67.247C55.4079 67.1803 55.6499 67.3507 55.6877 67.6321C55.9221 69.2616 56.5497 70.9282 57.9031 71.8911C59.748 73.2021 62.6288 73.128 64.882 72.5207C65.1542 72.4466 65.3659 72.2318 65.3433 72.054C65.3281 71.9652 65.313 71.854 65.2903 71.7355C64.7535 68.758 63.022 66.6692 59.9673 66.0767C59.6875 66.0248 59.68 65.9137 59.9446 65.8174C61.2905 65.3286 62.6439 64.7805 64.0276 64.1065C64.2847 63.9805 64.5569 64.0916 64.6552 64.3583C65.245 65.9656 66.2204 67.4618 67.8158 68.121C69.9329 68.9876 72.8363 68.2321 74.8854 67.084C75.1349 66.9433 75.2635 66.6026 75.1576 66.3433C74.5452 64.8768 72.7002 61.877 68.8289 61.9585C68.6248 61.9659 68.4509 61.9733 68.2921 61.9807C68.0048 61.9955 67.9745 61.9066 68.2089 61.7511C69.6153 60.84 70.9763 59.8179 71.9366 59.0105C72.1558 58.8253 72.4432 58.8698 72.602 59.1068C74.9686 62.6251 77.8721 62.9139 81.4409 60.7511C81.9021 60.4845 82.7414 59.8179 83.2556 59.3512C83.4673 59.1661 83.4975 58.8031 83.3312 58.5735C82.4239 57.3736 80.9192 56.2033 79.3389 55.7959C78.0006 55.4404 76.6472 55.6182 75.3542 56.0774C75.0896 56.1737 75.0291 56.0922 75.2257 55.8848C76.322 54.7145 77.3428 53.4702 78.2879 52.1666C78.4543 51.9369 78.7492 51.9147 78.9533 52.1073C81.1309 54.0997 83.4749 54.8034 86.0835 53.2554C87.3462 52.5073 88.5711 51.2185 89.433 49.8926C89.5843 49.6556 89.5313 49.3001 89.3121 49.1223C88.8584 48.7594 88.314 48.4261 87.8301 48.1816C85.4786 46.9891 83.1724 47.0558 80.7302 48.7446C80.4958 48.9075 80.4277 48.8483 80.5714 48.6038C81.388 47.1595 82.129 45.6263 82.749 44.056C82.8549 43.7968 83.127 43.7005 83.3766 43.8412C86.023 45.3078 88.4879 45.4485 90.6655 43.3005C91.6182 42.3598 92.5634 40.8044 93.0851 39.2489C93.1758 38.9823 93.0321 38.649 92.7751 38.5231C91.036 37.6935 88.0569 37.2121 85.781 38.886C85.1459 39.3526 84.6468 39.8489 84.1856 40.397C84.0041 40.6118 83.9285 40.5748 84.0041 40.3081C84.4956 38.5231 84.8283 36.8269 85.0476 35.1381C85.0854 34.8641 85.3273 34.7085 85.5995 34.7826C89.8035 35.9677 92.397 34.4122 93.5992 30.294C93.7807 29.6422 93.9319 28.7682 93.9924 28.0645C94.0151 27.7831 93.8034 27.4942 93.5236 27.435C92.1021 27.1535 89.5465 27.1165 87.6637 28.6127C86.6808 29.3608 86.0381 30.4347 85.5391 31.5087ZM39.7337 73.3799C39.5069 73.9132 38.1383 72.4688 38.4483 72.1726C38.5844 72.054 39.9757 72.8318 39.7337 73.3799Z" fill="#57AA7D"/>
</g>
<path d="M34.9784 19.5292C34.1194 19.5292 33.3226 19.3947 32.5878 19.1256C31.8531 18.8462 31.2166 18.453 30.6785 17.9459C30.1507 17.4388 29.7368 16.8437 29.4367 16.1607C29.1366 15.4674 28.9865 14.7068 28.9865 13.8789C28.9865 13.051 29.1366 12.2955 29.4367 11.6125C29.7368 10.9192 30.1559 10.3189 30.694 9.81185C31.2322 9.30477 31.8686 8.9167 32.6034 8.64763C33.3485 8.36822 34.1608 8.22851 35.0405 8.22851C36.065 8.22851 36.9808 8.39927 37.788 8.74077C38.5952 9.08228 39.2627 9.57383 39.7905 10.2154L37.8346 11.9851C37.462 11.5815 37.0584 11.2814 36.6238 11.0847C36.1995 10.8778 35.7235 10.7743 35.1957 10.7743C34.73 10.7743 34.3057 10.8467 33.9228 10.9916C33.5399 11.1365 33.2139 11.3486 32.9449 11.628C32.6758 11.8971 32.4637 12.2231 32.3084 12.606C32.1635 12.9785 32.0911 13.4028 32.0911 13.8789C32.0911 14.3342 32.1635 14.7533 32.3084 15.1362C32.4637 15.5191 32.6758 15.8503 32.9449 16.1297C33.2139 16.3988 33.5347 16.6109 33.9073 16.7661C34.2902 16.911 34.7093 16.9834 35.1646 16.9834C35.62 16.9834 36.065 16.911 36.4996 16.7661C36.9343 16.6109 37.3741 16.3522 37.8191 15.99L39.5421 18.1477C38.9212 18.5927 38.202 18.9342 37.3844 19.1722C36.5669 19.4102 35.7649 19.5292 34.9784 19.5292ZM36.8256 17.7441V13.646H39.5421V18.1477L36.8256 17.7441ZM41.4907 19.3119V8.44583H44.5643V19.3119H41.4907ZM46.7509 19.3119V8.44583H51.7183C52.7118 8.44583 53.5655 8.60624 54.2796 8.92705C55.004 9.24785 55.5628 9.71354 55.956 10.3241C56.3493 10.9243 56.5459 11.6384 56.5459 12.4663C56.5459 13.2838 56.3493 13.9927 55.956 14.5929C55.5628 15.1828 55.004 15.6381 54.2796 15.9589C53.5655 16.2694 52.7118 16.4246 51.7183 16.4246H48.4585L49.8245 15.1362V19.3119H46.7509ZM53.4724 19.3119L50.7714 15.3535H54.0467L56.7632 19.3119H53.4724ZM49.8245 15.4622L48.4585 14.0496H51.532C52.1736 14.0496 52.6497 13.9099 52.9601 13.6305C53.2809 13.3511 53.4413 12.963 53.4413 12.4663C53.4413 11.9592 53.2809 11.5659 52.9601 11.2865C52.6497 11.0071 52.1736 10.8674 51.532 10.8674H48.4585L49.8245 9.45483V15.4622ZM58.2416 19.3119V8.44583H61.3151V16.8748H66.4998V19.3119H58.2416Z" fill="#1C252F"/>
<path d="M32.5878 19.1256L32.3268 19.812L32.3353 19.8151L32.5878 19.1256ZM30.6785 17.9459L30.1697 18.4754L30.1749 18.4803L30.6785 17.9459ZM29.4367 16.1607L28.7628 16.4524L28.7644 16.4561L29.4367 16.1607ZM29.4367 11.6125L30.109 11.9079L30.1106 11.9042L29.4367 11.6125ZM30.694 9.81185L30.1905 9.27743L30.1905 9.27743L30.694 9.81185ZM32.6034 8.64763L32.8559 9.33718L32.8612 9.33519L32.6034 8.64763ZM37.788 8.74077L38.0741 8.0645L37.788 8.74077ZM39.7905 10.2154L40.2831 10.76L40.8026 10.29L40.3576 9.74896L39.7905 10.2154ZM37.8346 11.9851L37.295 12.4831L37.7881 13.0173L38.3273 12.5296L37.8346 11.9851ZM36.6238 11.0847L36.3019 11.7447L36.3114 11.7494L36.3211 11.7538L36.6238 11.0847ZM32.9449 11.628L33.4642 12.1474L33.4738 12.1374L32.9449 11.628ZM32.3084 12.606L31.6278 12.3301L31.624 12.3398L32.3084 12.606ZM32.3084 15.1362L31.6216 15.3961L31.6247 15.4041L31.6279 15.4121L32.3084 15.1362ZM32.9449 16.1297L32.4158 16.6391L32.4256 16.6489L32.9449 16.1297ZM33.9073 16.7661L33.6249 17.444L33.6361 17.4486L33.6474 17.4529L33.9073 16.7661ZM36.4996 16.7661L36.7318 17.4628L36.7392 17.4603L36.7466 17.4577L36.4996 16.7661ZM37.8191 15.99L38.3929 15.5318L37.9304 14.9526L37.3555 15.4205L37.8191 15.99ZM39.5421 18.1477L39.9699 18.7445L40.5986 18.2939L40.1159 17.6895L39.5421 18.1477ZM37.3844 19.1722L37.5897 19.8772L37.3844 19.1722ZM36.8256 17.7441H36.0913V18.3773L36.7177 18.4704L36.8256 17.7441ZM36.8256 13.646V12.9117H36.0913V13.646H36.8256ZM39.5421 13.646H40.2764V12.9117H39.5421V13.646ZM39.5421 18.1477L39.4342 18.874L40.2764 18.9991V18.1477H39.5421ZM34.9784 18.7949C34.1972 18.7949 33.4867 18.6728 32.8403 18.4361L32.3353 19.8151C33.1585 20.1166 34.0417 20.2635 34.9784 20.2635V18.7949ZM32.8488 18.4393C32.1984 18.1919 31.6458 17.8484 31.1821 17.4114L30.1749 18.4803C30.7875 19.0575 31.5078 19.5005 32.3268 19.812L32.8488 18.4393ZM31.1873 17.4164C30.7302 16.9772 30.3712 16.4621 30.109 15.8653L28.7644 16.4561C29.1024 17.2254 29.5713 17.9004 30.1698 18.4754L31.1873 17.4164ZM30.1106 15.8691C29.854 15.2763 29.7208 14.6161 29.7208 13.8789H28.2522C28.2522 14.7974 28.4192 15.6585 28.7628 16.4524L30.1106 15.8691ZM29.7208 13.8789C29.7208 13.1415 29.854 12.4881 30.109 11.9079L28.7644 11.3171C28.4191 12.103 28.2522 12.9605 28.2522 13.8789H29.7208ZM30.1106 11.9042C30.3719 11.3004 30.7338 10.7834 31.1976 10.3463L30.1905 9.27743C29.578 9.85452 29.1017 10.5379 28.7628 11.3208L30.1106 11.9042ZM31.1976 10.3463C31.6593 9.91128 32.2089 9.57407 32.8559 9.33716L32.3509 7.9581C31.5283 8.25932 30.8051 8.69826 30.1905 9.27743L31.1976 10.3463ZM32.8612 9.33519C33.5156 9.08978 34.2396 8.96282 35.0405 8.96282V7.4942C34.082 7.4942 33.1813 7.64666 32.3455 7.96008L32.8612 9.33519ZM35.0405 8.96282C35.9831 8.96282 36.7992 9.11975 37.5019 9.41704L38.0741 8.0645C37.1625 7.67878 36.1469 7.4942 35.0405 7.4942V8.96282ZM37.5019 9.41704C38.2061 9.71496 38.7751 10.137 39.2234 10.6819L40.3576 9.74896C39.7503 9.0107 38.9844 8.4496 38.0741 8.0645L37.5019 9.41704ZM39.2978 9.67093L37.3419 11.4405L38.3273 12.5296L40.2831 10.76L39.2978 9.67093ZM38.3742 11.487C37.9449 11.022 37.4633 10.6585 36.9265 10.4157L36.3211 11.7538C36.6536 11.9042 36.9792 12.141 37.295 12.4831L38.3742 11.487ZM36.9457 10.4248C36.4099 10.1634 35.8218 10.04 35.1957 10.04V11.5086C35.6252 11.5086 35.9891 11.5922 36.3019 11.7447L36.9457 10.4248ZM35.1957 10.04C34.6533 10.04 34.1395 10.1245 33.6629 10.3048L34.1827 11.6784C34.4719 11.5689 34.8067 11.5086 35.1957 11.5086V10.04ZM33.6629 10.3048C33.1841 10.486 32.7646 10.7566 32.4159 11.1187L33.4738 12.1374C33.6633 11.9406 33.8957 11.787 34.1827 11.6784L33.6629 10.3048ZM32.4256 11.1088C32.0813 11.4531 31.8169 11.864 31.6279 12.3301L32.9889 12.8819C33.1104 12.5822 33.2703 12.3411 33.4641 12.1473L32.4256 11.1088ZM31.624 12.3398C31.4405 12.8118 31.3568 13.3288 31.3568 13.8789H32.8254C32.8254 13.4769 32.8866 13.1453 32.9928 12.8721L31.624 12.3398ZM31.3568 13.8789C31.3568 14.4131 31.442 14.9213 31.6216 15.3961L32.9952 14.8764C32.8851 14.5853 32.8254 14.2553 32.8254 13.8789H31.3568ZM31.6279 15.4121C31.816 15.8761 32.0778 16.2879 32.4159 16.639L33.4738 15.6203C33.2738 15.4127 33.1113 15.1622 32.9889 14.8603L31.6279 15.4121ZM32.4256 16.6489C32.7666 16.9899 33.1692 17.2541 33.6249 17.444L34.1897 16.0883C33.9003 15.9677 33.6613 15.8076 33.4641 15.6105L32.4256 16.6489ZM33.6474 17.4529C34.1222 17.6325 34.6305 17.7178 35.1646 17.7178V16.2491C34.7882 16.2491 34.4582 16.1895 34.1672 16.0793L33.6474 17.4529ZM35.1646 17.7178C35.6994 17.7178 36.2228 17.6324 36.7318 17.4628L36.2674 16.0695C35.9072 16.1896 35.5406 16.2491 35.1646 16.2491V17.7178ZM36.7466 17.4577C37.2763 17.2685 37.788 16.9621 38.2826 16.5595L37.3555 15.4205C36.9601 15.7423 36.5922 15.9533 36.2526 16.0746L36.7466 17.4577ZM37.2453 16.4482L38.9683 18.6059L40.1159 17.6895L38.3929 15.5318L37.2453 16.4482ZM39.1144 17.5508C38.5682 17.9422 37.926 18.2497 37.1792 18.4671L37.5897 19.8772C38.4779 19.6186 39.2742 19.2431 39.9699 18.7445L39.1144 17.5508ZM37.1792 18.4671C36.4228 18.6873 35.6899 18.7949 34.9784 18.7949V20.2635C35.8398 20.2635 36.7109 20.1331 37.5897 19.8772L37.1792 18.4671ZM37.5599 17.7441V13.646H36.0913V17.7441H37.5599ZM36.8256 14.3803H39.5421V12.9117H36.8256V14.3803ZM38.8078 13.646V18.1477H40.2764V13.646H38.8078ZM39.65 17.4213L36.9335 17.0177L36.7177 18.4704L39.4342 18.874L39.65 17.4213ZM41.4907 19.3119H40.7564V20.0462H41.4907V19.3119ZM41.4907 8.44583V7.71153H40.7564V8.44583H41.4907ZM44.5643 8.44583H45.2986V7.71153H44.5643V8.44583ZM44.5643 19.3119V20.0462H45.2986V19.3119H44.5643ZM42.225 19.3119V8.44583H40.7564V19.3119H42.225ZM41.4907 9.18014H44.5643V7.71153H41.4907V9.18014ZM43.83 8.44583V19.3119H45.2986V8.44583H43.83ZM44.5643 18.5776H41.4907V20.0462H44.5643V18.5776ZM46.7509 19.3119H46.0166V20.0462H46.7509V19.3119ZM46.7509 8.44583V7.71153H46.0166V8.44583H46.7509ZM54.2796 8.92705L53.9786 9.59687L53.9822 9.59846L54.2796 8.92705ZM55.956 10.3241L55.3387 10.7217L55.3418 10.7265L55.956 10.3241ZM55.956 14.5929L56.567 15.0003L56.5703 14.9953L55.956 14.5929ZM54.2796 15.9589L54.5724 16.6324L54.5769 16.6304L54.2796 15.9589ZM48.4585 16.4246L47.9546 15.8904L46.6097 17.1589H48.4585V16.4246ZM49.8245 15.1362H50.5588V13.4342L49.3206 14.602L49.8245 15.1362ZM49.8245 19.3119V20.0462H50.5588V19.3119H49.8245ZM53.4724 19.3119L52.8658 19.7258L53.0845 20.0462H53.4724V19.3119ZM50.7714 15.3535V14.6192H49.3814L50.1648 15.7674L50.7714 15.3535ZM54.0467 15.3535L54.6522 14.938L54.4334 14.6192H54.0467V15.3535ZM56.7632 19.3119V20.0462H58.1578L57.3687 18.8964L56.7632 19.3119ZM49.8245 15.4622L49.2966 15.9727L50.5588 17.2779V15.4622H49.8245ZM48.4585 14.0496V13.3153H46.7269L47.9306 14.5601L48.4585 14.0496ZM52.9601 13.6305L52.4778 13.0767L52.4689 13.0847L52.9601 13.6305ZM52.9601 11.2865L52.4688 11.8324L52.4778 11.8403L52.9601 11.2865ZM48.4585 10.8674L47.9306 10.357L46.7269 11.6017H48.4585V10.8674ZM49.8245 9.45483H50.5588V7.63917L49.2966 8.94437L49.8245 9.45483ZM47.4853 19.3119V8.44583H46.0166V19.3119H47.4853ZM46.7509 9.18014H51.7183V7.71153H46.7509V9.18014ZM51.7183 9.18014C52.635 9.18014 53.381 9.32837 53.9786 9.59686L54.5805 8.25723C53.75 7.8841 52.7885 7.71153 51.7183 7.71153V9.18014ZM53.9822 9.59846C54.5879 9.8667 55.0301 10.2426 55.3387 10.7217L56.5734 9.9265C56.0954 9.18444 55.42 8.629 54.5769 8.25563L53.9822 9.59846ZM55.3418 10.7265C55.6452 11.1896 55.8116 11.7588 55.8116 12.4663H57.2802C57.2802 11.518 57.0534 10.6591 56.5703 9.92169L55.3418 10.7265ZM55.8116 12.4663C55.8116 13.1613 55.6462 13.7259 55.3418 14.1905L56.5703 14.9953C57.0524 14.2595 57.2802 13.4063 57.2802 12.4663H55.8116ZM55.3451 14.1856C55.038 14.6461 54.5946 15.0163 53.9822 15.2875L54.5769 16.6304C55.4134 16.2599 56.0876 15.7194 56.567 15.0002L55.3451 14.1856ZM53.9868 15.2855C53.3868 15.5464 52.6377 15.6903 51.7183 15.6903V17.1589C52.7858 17.1589 53.7442 16.9924 54.5724 16.6323L53.9868 15.2855ZM51.7183 15.6903H48.4585V17.1589H51.7183V15.6903ZM48.9623 16.9588L50.3283 15.6704L49.3206 14.602L47.9546 15.8904L48.9623 16.9588ZM49.0902 15.1362V19.3119H50.5588V15.1362H49.0902ZM49.8245 18.5776H46.7509V20.0462H49.8245V18.5776ZM54.0789 18.898L51.3779 14.9397L50.1648 15.7674L52.8658 19.7258L54.0789 18.898ZM50.7714 16.0878H54.0467V14.6192H50.7714V16.0878ZM53.4413 15.769L56.1578 19.7274L57.3687 18.8964L54.6522 14.938L53.4413 15.769ZM56.7632 18.5776H53.4724V20.0462H56.7632V18.5776ZM50.3523 14.9517L48.9863 13.5392L47.9306 14.5601L49.2966 15.9727L50.3523 14.9517ZM48.4585 14.7839H51.532V13.3153H48.4585V14.7839ZM51.532 14.7839C52.2613 14.7839 52.9497 14.6278 53.4513 14.1763L52.4689 13.0847C52.3496 13.192 52.086 13.3153 51.532 13.3153V14.7839ZM53.4424 14.1842C53.9507 13.7415 54.1756 13.136 54.1756 12.4663H52.707C52.707 12.79 52.6111 12.9607 52.4778 13.0768L53.4424 14.1842ZM54.1756 12.4663C54.1756 11.7916 53.9542 11.1786 53.4424 10.7328L52.4778 11.8403C52.6076 11.9533 52.707 12.1268 52.707 12.4663H54.1756ZM53.4513 10.7407C52.9497 10.2892 52.2613 10.1331 51.532 10.1331V11.6017C52.086 11.6017 52.3496 11.725 52.4689 11.8323L53.4513 10.7407ZM51.532 10.1331H48.4585V11.6017H51.532V10.1331ZM48.9863 11.3779L50.3523 9.96529L49.2966 8.94437L47.9306 10.357L48.9863 11.3779ZM49.0902 9.45483V15.4622H50.5588V9.45483H49.0902ZM58.2416 19.3119H57.5072V20.0462H58.2416V19.3119ZM58.2416 8.44583V7.71153H57.5072V8.44583H58.2416ZM61.3151 8.44583H62.0494V7.71153H61.3151V8.44583ZM61.3151 16.8748H60.5808V17.6091H61.3151V16.8748ZM66.4998 16.8748H67.2341V16.1405H66.4998V16.8748ZM66.4998 19.3119V20.0462H67.2341V19.3119H66.4998ZM58.9759 19.3119V8.44583H57.5072V19.3119H58.9759ZM58.2416 9.18014H61.3151V7.71153H58.2416V9.18014ZM60.5808 8.44583V16.8748H62.0494V8.44583H60.5808ZM61.3151 17.6091H66.4998V16.1405H61.3151V17.6091ZM65.7654 16.8748V19.3119H67.2341V16.8748H65.7654ZM66.4998 18.5776H58.2416V20.0462H66.4998V18.5776Z" fill="white"/>
<path d="M32.6479 32.6441C31.9879 32.6441 31.4004 32.5032 30.8852 32.2215C30.3701 31.9318 29.9636 31.5374 29.6658 31.0383C29.368 30.5393 29.2191 29.9718 29.2191 29.336C29.2191 28.6921 29.368 28.1246 29.6658 27.6336C29.9636 27.1346 30.3701 26.7442 30.8852 26.4625C31.4004 26.1808 31.9879 26.0399 32.6479 26.0399C33.316 26.0399 33.9076 26.1808 34.4227 26.4625C34.9459 26.7442 35.3524 27.1306 35.6421 27.6216C35.94 28.1125 36.0889 28.684 36.0889 29.336C36.0889 29.9718 35.94 30.5393 35.6421 31.0383C35.3524 31.5374 34.9459 31.9318 34.4227 32.2215C33.9076 32.5032 33.316 32.6441 32.6479 32.6441ZM32.6479 31.3522C33.0182 31.3522 33.3482 31.2717 33.638 31.1108C33.9277 30.9498 34.1531 30.7164 34.3141 30.4105C34.4831 30.1046 34.5676 29.7465 34.5676 29.336C34.5676 28.9174 34.4831 28.5593 34.3141 28.2614C34.1531 27.9556 33.9277 27.7222 33.638 27.5612C33.3482 27.4002 33.0222 27.3197 32.66 27.3197C32.2898 27.3197 31.9598 27.4002 31.67 27.5612C31.3883 27.7222 31.1629 27.9556 30.9939 28.2614C30.8249 28.5593 30.7403 28.9174 30.7403 29.336C30.7403 29.7465 30.8249 30.1046 30.9939 30.4105C31.1629 30.7164 31.3883 30.9498 31.67 31.1108C31.9598 31.2717 32.2857 31.3522 32.6479 31.3522ZM37.7373 32.5596V25.7502C37.7373 25.0741 37.9345 24.5348 38.3289 24.1323C38.7313 23.7218 39.3028 23.5166 40.0433 23.5166C40.3089 23.5166 40.5584 23.5448 40.7918 23.6011C41.0333 23.6575 41.2345 23.746 41.3955 23.8667L40.985 25.0016C40.8723 24.9131 40.7435 24.8487 40.5986 24.8085C40.4538 24.7602 40.3049 24.736 40.1519 24.736C39.838 24.736 39.6006 24.8245 39.4396 25.0016C39.2786 25.1707 39.1981 25.4282 39.1981 25.7743V26.4987L39.2464 27.1748V32.5596H37.7373ZM36.6748 27.368V26.1607H40.9729V27.368H36.6748ZM47.7522 32.6441C47.0439 32.6441 46.4966 32.463 46.1102 32.1008C45.7239 31.7305 45.5307 31.1872 45.5307 30.4709V24.6877H47.0399V30.4347C47.0399 30.7405 47.1164 30.978 47.2693 31.147C47.4303 31.316 47.6516 31.4005 47.9333 31.4005C48.2714 31.4005 48.5531 31.312 48.7785 31.1349L49.201 32.2094C49.024 32.3543 48.8066 32.463 48.5491 32.5354C48.2915 32.6079 48.0259 32.6441 47.7522 32.6441ZM44.4683 27.368V26.1607H48.7664V27.368H44.4683ZM54.1008 26.0399C54.6159 26.0399 55.0747 26.1405 55.4771 26.3418C55.8876 26.543 56.2096 26.8529 56.443 27.2714C56.6764 27.6819 56.7931 28.2131 56.7931 28.8651V32.5596H55.284V29.0583C55.284 28.4868 55.1471 28.0602 54.8735 27.7785C54.6078 27.4968 54.2336 27.3559 53.7506 27.3559C53.3965 27.3559 53.0826 27.4284 52.8089 27.5733C52.5352 27.7181 52.322 27.9355 52.169 28.2252C52.0241 28.5069 51.9517 28.8651 51.9517 29.2998V32.5596H50.4425V23.6011H51.9517V27.8509L51.6257 27.3197C51.8511 26.9092 52.1771 26.5953 52.6037 26.378C53.0383 26.1526 53.5373 26.0399 54.1008 26.0399ZM61.7498 32.6441C61.0335 32.6441 60.4057 32.5032 59.8664 32.2215C59.3351 31.9318 58.9206 31.5374 58.6228 31.0383C58.3331 30.5393 58.1882 29.9718 58.1882 29.336C58.1882 28.6921 58.329 28.1246 58.6107 27.6336C58.9005 27.1346 59.2949 26.7442 59.7939 26.4625C60.301 26.1808 60.8765 26.0399 61.5204 26.0399C62.1482 26.0399 62.7076 26.1768 63.1986 26.4504C63.6896 26.7241 64.076 27.1104 64.3577 27.6095C64.6394 28.1085 64.7802 28.6961 64.7802 29.3722C64.7802 29.4366 64.7762 29.509 64.7682 29.5895C64.7682 29.67 64.7642 29.7465 64.7561 29.8189H59.3834V28.8168H63.9593L63.3677 29.1307C63.3757 28.7605 63.2992 28.4345 63.1383 28.1528C62.9773 27.8711 62.7559 27.6497 62.4742 27.4887C62.2006 27.3278 61.8826 27.2473 61.5204 27.2473C61.1502 27.2473 60.8242 27.3278 60.5425 27.4887C60.2688 27.6497 60.0515 27.8751 59.8905 28.1649C59.7376 28.4466 59.6611 28.7806 59.6611 29.1669V29.4084C59.6611 29.7948 59.7497 30.1368 59.9267 30.4347C60.1038 30.7325 60.3533 30.9619 60.6753 31.1228C60.9973 31.2838 61.3675 31.3643 61.786 31.3643C62.1482 31.3643 62.4742 31.308 62.764 31.1953C63.0538 31.0826 63.3113 30.9055 63.5367 30.664L64.3456 31.5937C64.0558 31.9318 63.6896 32.1933 63.2469 32.3785C62.8123 32.5555 62.3133 32.6441 61.7498 32.6441ZM35.0522 40.0399C35.5673 40.0399 36.0221 40.1405 36.4165 40.3418C36.8189 40.543 37.1328 40.8529 37.3582 41.2714C37.5836 41.6819 37.6963 42.2131 37.6963 42.8651V46.5596H36.1871V43.0583C36.1871 42.4868 36.0623 42.0602 35.8128 41.7785C35.5633 41.4968 35.2051 41.3559 34.7383 41.3559C34.4083 41.3559 34.1145 41.4284 33.8569 41.5733C33.6074 41.7181 33.4102 41.9314 33.2653 42.2131C33.1285 42.4949 33.0601 42.853 33.0601 43.2877V46.5596H31.5509V43.0583C31.5509 42.4868 31.4262 42.0602 31.1766 41.7785C30.9271 41.4968 30.5689 41.3559 30.1021 41.3559C29.7721 41.3559 29.4783 41.4284 29.2207 41.5733C28.9712 41.7181 28.774 41.9314 28.6292 42.2131C28.4923 42.4949 28.4239 42.853 28.4239 43.2877V46.5596H26.9147V40.1124H28.3515V41.8268L28.0979 41.3197C28.3152 40.9012 28.6292 40.5832 29.0396 40.3659C29.4582 40.1486 29.9331 40.0399 30.4643 40.0399C31.068 40.0399 31.5912 40.1888 32.0338 40.4867C32.4846 40.7845 32.7824 41.2352 32.9273 41.8389L32.3357 41.6336C32.545 41.1507 32.8911 40.7643 33.374 40.4746C33.8569 40.1848 34.4163 40.0399 35.0522 40.0399ZM42.5342 46.6441C41.8742 46.6441 41.2866 46.5032 40.7715 46.2215C40.2564 45.9318 39.8499 45.5374 39.5521 45.0383C39.2543 44.5393 39.1054 43.9718 39.1054 43.336C39.1054 42.6921 39.2543 42.1246 39.5521 41.6336C39.8499 41.1346 40.2564 40.7442 40.7715 40.4625C41.2866 40.1808 41.8742 40.0399 42.5342 40.0399C43.2023 40.0399 43.7939 40.1808 44.309 40.4625C44.8322 40.7442 45.2387 41.1306 45.5284 41.6216C45.8262 42.1125 45.9751 42.684 45.9751 43.336C45.9751 43.9718 45.8262 44.5393 45.5284 45.0383C45.2387 45.5374 44.8322 45.9318 44.309 46.2215C43.7939 46.5032 43.2023 46.6441 42.5342 46.6441ZM42.5342 45.3522C42.9045 45.3522 43.2345 45.2717 43.5242 45.1108C43.814 44.9498 44.0394 44.7164 44.2003 44.4105C44.3694 44.1046 44.4539 43.7465 44.4539 43.336C44.4539 42.9174 44.3694 42.5593 44.2003 42.2614C44.0394 41.9556 43.814 41.7222 43.5242 41.5612C43.2345 41.4002 42.9085 41.3197 42.5463 41.3197C42.176 41.3197 41.846 41.4002 41.5563 41.5612C41.2746 41.7222 41.0492 41.9556 40.8802 42.2614C40.7111 42.5593 40.6266 42.9174 40.6266 43.336C40.6266 43.7465 40.7111 44.1046 40.8802 44.4105C41.0492 44.7164 41.2746 44.9498 41.5563 45.1108C41.846 45.2717 42.172 45.3522 42.5342 45.3522ZM51.0765 40.0399C51.5916 40.0399 52.0504 40.1405 52.4529 40.3418C52.8634 40.543 53.1853 40.8529 53.4188 41.2714C53.6522 41.6819 53.7689 42.2131 53.7689 42.8651V46.5596H52.2597V43.0583C52.2597 42.4868 52.1229 42.0602 51.8492 41.7785C51.5836 41.4968 51.2093 41.3559 50.7264 41.3559C50.3722 41.3559 50.0583 41.4284 49.7847 41.5733C49.511 41.7181 49.2977 41.9355 49.1448 42.2252C48.9999 42.5069 48.9275 42.8651 48.9275 43.2998V46.5596H47.4183V40.1124H48.855V41.8509L48.6015 41.3197C48.8268 40.9092 49.1528 40.5953 49.5794 40.378C50.0141 40.1526 50.5131 40.0399 51.0765 40.0399ZM58.1101 46.6441C57.4018 46.6441 56.8545 46.463 56.4681 46.1008C56.0818 45.7305 55.8886 45.1872 55.8886 44.4709V38.6877H57.3978V44.4347C57.3978 44.7405 57.4743 44.978 57.6272 45.147C57.7882 45.316 58.0095 45.4005 58.2912 45.4005C58.6293 45.4005 58.911 45.312 59.1364 45.1349L59.5589 46.2094C59.3818 46.3543 59.1645 46.463 58.907 46.5354C58.6494 46.6079 58.3838 46.6441 58.1101 46.6441ZM54.8262 41.368V40.1607H59.1243V41.368H54.8262ZM64.4587 40.0399C64.9738 40.0399 65.4326 40.1405 65.835 40.3418C66.2455 40.543 66.5675 40.8529 66.8009 41.2714C67.0343 41.6819 67.151 42.2131 67.151 42.8651V46.5596H65.6418V43.0583C65.6418 42.4868 65.505 42.0602 65.2313 41.7785C64.9657 41.4968 64.5915 41.3559 64.1085 41.3559C63.7544 41.3559 63.4405 41.4284 63.1668 41.5733C62.8931 41.7181 62.6798 41.9355 62.5269 42.2252C62.382 42.5069 62.3096 42.8651 62.3096 43.2998V46.5596H60.8004V37.6011H62.3096V41.8509L61.9836 41.3197C62.209 40.9092 62.535 40.5953 62.9616 40.378C63.3962 40.1526 63.8952 40.0399 64.4587 40.0399Z" fill="#68717A"/>
<path d="M30.8852 32.2215L30.5252 32.8616L30.5329 32.8658L30.8852 32.2215ZM29.6658 31.0383L29.0353 31.4146L29.6658 31.0383ZM29.6658 27.6336L30.2937 28.0145L30.2964 28.0099L29.6658 27.6336ZM30.8852 26.4625L31.2376 27.1068V27.1068L30.8852 26.4625ZM34.4227 26.4625L34.0704 27.1068L34.0746 27.109L34.4227 26.4625ZM35.6421 27.6216L35.0097 27.9948L35.0143 28.0024L35.6421 27.6216ZM35.6421 31.0383L35.0115 30.662L35.0071 30.6696L35.6421 31.0383ZM34.4227 32.2215L34.7751 32.8658L34.7785 32.8639L34.4227 32.2215ZM33.638 31.1108L33.2813 30.4689L33.638 31.1108ZM34.3141 30.4105L33.6714 30.0553L33.6678 30.0619L33.6643 30.0685L34.3141 30.4105ZM34.3141 28.2614L33.6643 28.6034L33.6697 28.6138L33.6755 28.6239L34.3141 28.2614ZM33.638 27.5612L33.9946 26.9193L33.638 27.5612ZM31.67 27.5612L31.3134 26.9192L31.3057 26.9236L31.67 27.5612ZM30.9939 28.2614L31.6325 28.6239L31.6366 28.6166L30.9939 28.2614ZM30.9939 30.4105L30.3512 30.7657V30.7657L30.9939 30.4105ZM31.67 31.1108L31.3057 31.7484L31.3134 31.7527L31.67 31.1108ZM32.6479 31.9098C32.0955 31.9098 31.6318 31.7929 31.2376 31.5773L30.5329 32.8658C31.1689 33.2136 31.8803 33.3784 32.6479 33.3784V31.9098ZM31.2452 31.5815C30.8397 31.3534 30.5274 31.0491 30.2964 30.662L29.0353 31.4146C29.3999 32.0256 29.9004 32.5101 30.5252 32.8615L31.2452 31.5815ZM30.2964 30.662C30.0728 30.2873 29.9534 29.8522 29.9534 29.336H28.4848C28.4848 30.0915 28.6632 30.7912 29.0353 31.4146L30.2964 30.662ZM29.9534 29.336C29.9534 28.8096 30.0737 28.3771 30.2937 28.0144L29.038 27.2528C28.6623 27.8721 28.4848 28.5745 28.4848 29.336H29.9534ZM30.2964 28.0099C30.5263 27.6247 30.8362 27.3263 31.2376 27.1068L30.5329 25.8182C29.904 26.1622 29.401 26.6445 29.0353 27.2573L30.2964 28.0099ZM31.2376 27.1068C31.6318 26.8912 32.0955 26.7742 32.6479 26.7742V25.3056C31.8803 25.3056 31.1689 25.4704 30.5329 25.8182L31.2376 27.1068ZM32.6479 26.7742C33.2101 26.7742 33.6774 26.8919 34.0704 27.1068L34.7751 25.8182C34.1378 25.4697 33.422 25.3056 32.6479 25.3056V26.7742ZM34.0746 27.109C34.4851 27.3301 34.791 27.6241 35.0098 27.9948L36.2745 27.2483C35.9138 26.637 35.4067 26.1584 34.7709 25.816L34.0746 27.109ZM35.0143 28.0024C35.2334 28.3636 35.3546 28.7997 35.3546 29.336H36.8232C36.8232 28.5683 36.6465 27.8614 36.27 27.2407L35.0143 28.0024ZM35.3546 29.336C35.3546 29.8522 35.2352 30.2873 35.0116 30.662L36.2727 31.4146C36.6447 30.7912 36.8232 30.0915 36.8232 29.336H35.3546ZM35.0071 30.6696C34.7865 31.0496 34.4785 31.3512 34.067 31.5791L34.7785 32.8639C35.4134 32.5123 35.9183 32.0252 36.2772 31.407L35.0071 30.6696ZM34.0704 31.5773C33.6774 31.7922 33.2101 31.9098 32.6479 31.9098V33.3784C33.422 33.3784 34.1378 33.2143 34.7751 32.8658L34.0704 31.5773ZM32.6479 32.0865C33.1281 32.0865 33.5834 31.9811 33.9946 31.7527L33.2813 30.4689C33.113 30.5624 32.9083 30.6179 32.6479 30.6179V32.0865ZM33.9946 31.7527C34.4146 31.5193 34.7394 31.179 34.9639 30.7525L33.6643 30.0685C33.5668 30.2537 33.4408 30.3803 33.2813 30.4689L33.9946 31.7527ZM34.9568 30.7657C35.1956 30.3335 35.3019 29.8489 35.3019 29.336H33.8333C33.8333 29.644 33.7706 29.8758 33.6714 30.0553L34.9568 30.7657ZM35.3019 29.336C35.3019 28.8184 35.197 28.3294 34.9527 27.899L33.6755 28.6239C33.7692 28.7891 33.8333 29.0164 33.8333 29.336H35.3019ZM34.9639 27.9194C34.7394 27.4929 34.4146 27.1527 33.9946 26.9193L33.2813 28.2031C33.4408 28.2917 33.5668 28.4182 33.6643 28.6034L34.9639 27.9194ZM33.9946 26.9193C33.5858 26.6922 33.1351 26.5854 32.66 26.5854V28.054C32.9093 28.054 33.1106 28.1082 33.2813 28.2031L33.9946 26.9193ZM32.66 26.5854C32.1799 26.5854 31.7245 26.6909 31.3134 26.9193L32.0266 28.2031C32.195 28.1095 32.3997 28.054 32.66 28.054V26.5854ZM31.3057 26.9236C30.898 27.1566 30.5801 27.492 30.3512 27.9063L31.6366 28.6166C31.7457 28.4192 31.8785 28.2878 32.0343 28.1987L31.3057 26.9236ZM30.3553 27.899C30.111 28.3294 30.006 28.8184 30.006 29.336H31.4747C31.4747 29.0164 31.5387 28.7891 31.6325 28.6239L30.3553 27.899ZM30.006 29.336C30.006 29.8489 30.1123 30.3335 30.3512 30.7657L31.6366 30.0553C31.5374 29.8758 31.4747 29.644 31.4747 29.336H30.006ZM30.3512 30.7657C30.5801 31.18 30.898 31.5154 31.3057 31.7483L32.0343 30.4732C31.8785 30.3842 31.7457 30.2527 31.6366 30.0553L30.3512 30.7657ZM31.3134 31.7527C31.7222 31.9798 32.1728 32.0865 32.6479 32.0865V30.6179C32.3987 30.6179 32.1974 30.5637 32.0266 30.4689L31.3134 31.7527ZM37.7373 32.5596H37.0029V33.2939H37.7373V32.5596ZM38.3289 24.1323L37.8045 23.6183L37.8044 23.6184L38.3289 24.1323ZM40.7918 23.6011L40.6195 24.3149L40.625 24.3162L40.7918 23.6011ZM41.3955 23.8667L42.086 24.1165L42.2709 23.6054L41.8361 23.2793L41.3955 23.8667ZM40.985 25.0016L40.5313 25.579L41.33 26.2066L41.6755 25.2514L40.985 25.0016ZM40.5986 24.8085L40.3664 25.5051L40.3841 25.511L40.4021 25.516L40.5986 24.8085ZM39.4396 25.0016L39.9713 25.508L39.9772 25.5019L39.9829 25.4956L39.4396 25.0016ZM39.1981 26.4987H38.4638V26.5249L38.4657 26.551L39.1981 26.4987ZM39.2464 27.1748H39.9807V27.1486L39.9789 27.1225L39.2464 27.1748ZM39.2464 32.5596V33.2939H39.9807V32.5596H39.2464ZM36.6748 27.368H35.9405V28.1023H36.6748V27.368ZM36.6748 26.1607V25.4264H35.9405V26.1607H36.6748ZM40.9729 26.1607H41.7072V25.4264H40.9729V26.1607ZM40.9729 27.368V28.1023H41.7072V27.368H40.9729ZM38.4716 32.5596V25.7502H37.0029V32.5596H38.4716ZM38.4716 25.7502C38.4716 25.2253 38.6196 24.8848 38.8533 24.6463L37.8044 23.6184C37.2493 24.1848 37.0029 24.9229 37.0029 25.7502H38.4716ZM38.8532 24.6464C39.0807 24.4143 39.4404 24.2509 40.0433 24.2509V22.7823C39.1651 22.7823 38.3818 23.0294 37.8045 23.6183L38.8532 24.6464ZM40.0433 24.2509C40.2569 24.2509 40.4481 24.2735 40.6195 24.3149L40.9641 22.8873C40.6687 22.816 40.3609 22.7823 40.0433 22.7823V24.2509ZM40.625 24.3162C40.7897 24.3547 40.8919 24.4069 40.9549 24.4542L41.8361 23.2793C41.5771 23.085 41.2768 22.9603 40.9587 22.886L40.625 24.3162ZM40.705 23.617L40.2945 24.7519L41.6755 25.2514L42.086 24.1165L40.705 23.617ZM41.4387 24.4242C41.246 24.2728 41.0288 24.1658 40.7952 24.1009L40.4021 25.516C40.4582 25.5316 40.4986 25.5534 40.5313 25.579L41.4387 24.4242ZM40.8309 24.1118C40.611 24.0385 40.3837 24.0017 40.1519 24.0017V25.4703C40.226 25.4703 40.2965 25.4818 40.3664 25.5051L40.8309 24.1118ZM40.1519 24.0017C39.6992 24.0017 39.2364 24.1335 38.8963 24.5077L39.9829 25.4956C39.983 25.4955 39.9829 25.4957 39.9825 25.496C39.9821 25.4964 39.9818 25.4965 39.982 25.4964C39.982 25.4964 39.9856 25.4939 39.995 25.4904C40.0147 25.4831 40.0624 25.4703 40.1519 25.4703V24.0017ZM38.9079 24.4952C38.5659 24.8542 38.4638 25.3294 38.4638 25.7743H39.9324C39.9324 25.5271 39.9913 25.4871 39.9713 25.508L38.9079 24.4952ZM38.4638 25.7743V26.4987H39.9324V25.7743H38.4638ZM38.4657 26.551L38.514 27.2272L39.9789 27.1225L39.9306 26.4464L38.4657 26.551ZM38.5121 27.1748V32.5596H39.9807V27.1748H38.5121ZM39.2464 31.8253H37.7373V33.2939H39.2464V31.8253ZM37.4091 27.368V26.1607H35.9405V27.368H37.4091ZM36.6748 26.895H40.9729V25.4264H36.6748V26.895ZM40.2386 26.1607V27.368H41.7072V26.1607H40.2386ZM40.9729 26.6337H36.6748V28.1023H40.9729V26.6337ZM46.1103 32.1008L45.6021 32.631L45.608 32.6365L46.1103 32.1008ZM45.5307 24.6877V23.9534H44.7964V24.6877H45.5307ZM47.0399 24.6877H47.7742V23.9534H47.0399V24.6877ZM47.2693 31.147L46.7248 31.6396L46.7311 31.6466L46.7376 31.6534L47.2693 31.147ZM48.7785 31.1349L49.4618 30.8662L49.1007 29.9479L48.3248 30.5575L48.7785 31.1349ZM49.201 32.2094L49.666 32.7778L50.0803 32.4388L49.8844 31.9407L49.201 32.2094ZM48.5491 32.5354L48.7479 33.2423L48.5491 32.5354ZM44.4683 27.368H43.734V28.1023H44.4683V27.368ZM44.4683 26.1607V25.4264H43.734V26.1607H44.4683ZM48.7664 26.1607H49.5007V25.4264H48.7664V26.1607ZM48.7664 27.368V28.1023H49.5007V27.368H48.7664ZM47.7522 31.9098C47.1661 31.9098 46.8221 31.7616 46.6125 31.5651L45.608 32.6365C46.1711 33.1644 46.9217 33.3784 47.7522 33.3784V31.9098ZM46.6183 31.5706C46.4205 31.381 46.265 31.0575 46.265 30.4709H44.7964C44.7964 31.317 45.0273 32.0801 45.6022 32.6309L46.6183 31.5706ZM46.265 30.4709V24.6877H44.7964V30.4709H46.265ZM45.5307 25.422H47.0399V23.9534H45.5307V25.422ZM46.3056 24.6877V30.4347H47.7742V24.6877H46.3056ZM46.3056 30.4347C46.3056 30.8594 46.4131 31.2951 46.7248 31.6396L47.8138 30.6543C47.8136 30.6541 47.8056 30.6461 47.7962 30.617C47.786 30.5853 47.7742 30.5278 47.7742 30.4347H46.3056ZM46.7376 31.6534C47.0652 31.9975 47.4954 32.1348 47.9333 32.1348V30.6662C47.8655 30.6662 47.8308 30.656 47.818 30.6511C47.8079 30.6473 47.8049 30.6446 47.801 30.6406L46.7376 31.6534ZM47.9333 32.1348C48.4052 32.1348 48.8552 32.0085 49.2321 31.7123L48.3248 30.5575C48.251 30.6155 48.1376 30.6662 47.9333 30.6662V32.1348ZM48.0951 31.4036L48.5177 32.4782L49.8844 31.9407L49.4618 30.8662L48.0951 31.4036ZM48.736 31.6411C48.6493 31.7121 48.5268 31.7789 48.3503 31.8285L48.7479 33.2423C49.0865 33.1471 49.3986 32.9966 49.666 32.7778L48.736 31.6411ZM48.3503 31.8285C48.1589 31.8824 47.9602 31.9098 47.7522 31.9098V33.3784C48.0916 33.3784 48.4241 33.3334 48.7479 33.2423L48.3503 31.8285ZM45.2026 27.368V26.1607H43.734V27.368H45.2026ZM44.4683 26.895H48.7664V25.4264H44.4683V26.895ZM48.0321 26.1607V27.368H49.5007V26.1607H48.0321ZM48.7664 26.6337H44.4683V28.1023H48.7664V26.6337ZM55.4771 26.3418L55.1487 26.9986L55.1539 27.0011L55.4771 26.3418ZM56.443 27.2714L55.8017 27.6291L55.8047 27.6344L56.443 27.2714ZM56.7931 32.5596V33.2939H57.5274V32.5596H56.7931ZM55.284 32.5596H54.5496V33.2939H55.284V32.5596ZM54.8735 27.7785L54.3391 28.2823L54.3468 28.2902L54.8735 27.7785ZM52.8089 27.5733L53.1525 28.2222L52.8089 27.5733ZM52.169 28.2252L51.5196 27.8825L51.516 27.8894L52.169 28.2252ZM51.9517 32.5596V33.2939H52.686V32.5596H51.9517ZM50.4425 32.5596H49.7082V33.2939H50.4425V32.5596ZM50.4425 23.6011V22.8668H49.7082V23.6011H50.4425ZM51.9517 23.6011H52.686V22.8668H51.9517V23.6011ZM51.9517 27.8509L51.3258 28.235L52.686 30.4516V27.8509H51.9517ZM51.6257 27.3197L50.982 26.9663L50.7768 27.3402L50.9999 27.7038L51.6257 27.3197ZM52.6037 26.378L52.937 27.0323L52.9417 27.0299L52.6037 26.378ZM54.1008 26.7742C54.5185 26.7742 54.8621 26.8552 55.1487 26.9986L55.8055 25.685C55.2873 25.4259 54.7133 25.3056 54.1008 25.3056V26.7742ZM55.1539 27.0011C55.4234 27.1332 55.6374 27.3345 55.8017 27.6291L57.0843 26.9138C56.7818 26.3713 56.3518 25.9528 55.8003 25.6824L55.1539 27.0011ZM55.8047 27.6344C55.9557 27.9 56.0588 28.2942 56.0588 28.8651H57.5274C57.5274 28.1321 57.3971 27.4638 57.0813 26.9085L55.8047 27.6344ZM56.0588 28.8651V32.5596H57.5274V28.8651H56.0588ZM56.7931 31.8253H55.284V33.2939H56.7931V31.8253ZM56.0183 32.5596V29.0583H54.5496V32.5596H56.0183ZM56.0183 29.0583C56.0183 28.3823 55.8571 27.7372 55.4002 27.2669L54.3468 28.2902C54.4372 28.3832 54.5496 28.5913 54.5496 29.0583H56.0183ZM55.4077 27.2748C54.9706 26.8111 54.3825 26.6216 53.7506 26.6216V28.0902C54.0847 28.0902 54.2451 28.1825 54.3392 28.2823L55.4077 27.2748ZM53.7506 26.6216C53.2941 26.6216 52.8592 26.7158 52.4653 26.9243L53.1525 28.2222C53.306 28.141 53.4989 28.0902 53.7506 28.0902V26.6216ZM52.4653 26.9243C52.0535 27.1423 51.7372 27.4702 51.5196 27.8825L52.8184 28.568C52.9067 28.4007 53.017 28.294 53.1525 28.2222L52.4653 26.9243ZM51.516 27.8894C51.3016 28.3063 51.2174 28.7895 51.2174 29.2998H52.686C52.686 28.9407 52.7467 28.7076 52.822 28.5611L51.516 27.8894ZM51.2174 29.2998V32.5596H52.686V29.2998H51.2174ZM51.9517 31.8253H50.4425V33.2939H51.9517V31.8253ZM51.1768 32.5596V23.6011H49.7082V32.5596H51.1768ZM50.4425 24.3354H51.9517V22.8668H50.4425V24.3354ZM51.2174 23.6011V27.8509H52.686V23.6011H51.2174ZM52.5776 27.4669L52.2516 26.9357L50.9999 27.7038L51.3258 28.235L52.5776 27.4669ZM52.2694 27.6731C52.4222 27.3948 52.6386 27.1843 52.937 27.0323L52.2703 25.7237C51.7156 26.0063 51.28 26.4236 50.982 26.9663L52.2694 27.6731ZM52.9417 27.0299C53.2571 26.8663 53.6372 26.7742 54.1008 26.7742V25.3056C53.4375 25.3056 52.8195 25.4389 52.2656 25.7261L52.9417 27.0299ZM59.8664 32.2215L59.5147 32.8663L59.5264 32.8724L59.8664 32.2215ZM58.6228 31.0383L57.9878 31.4071L57.9923 31.4146L58.6228 31.0383ZM58.6107 27.6336L57.9757 27.2649L57.9738 27.2682L58.6107 27.6336ZM59.7939 26.4625L59.4373 25.8206L59.433 25.8231L59.7939 26.4625ZM63.1986 26.4504L63.5561 25.809L63.1986 26.4504ZM64.7682 29.5895L64.0375 29.5164L64.0339 29.5529V29.5895H64.7682ZM64.7561 29.8189V30.5532H65.4133L65.4859 29.9L64.7561 29.8189ZM59.3834 29.8189H58.6491V30.5532H59.3834V29.8189ZM59.3834 28.8168V28.0825H58.6491V28.8168H59.3834ZM63.9593 28.8168L64.3034 29.4655L63.9593 28.0825V28.8168ZM63.3677 29.1307L62.6335 29.1148L62.6063 30.366L63.7118 29.7794L63.3677 29.1307ZM63.1383 28.1528L62.5007 28.5171V28.5171L63.1383 28.1528ZM62.4742 27.4887L62.1019 28.1217L62.1099 28.1263L62.4742 27.4887ZM60.5425 27.4887L60.1781 26.8511L60.1702 26.8558L60.5425 27.4887ZM59.8905 28.1649L59.2486 27.8082L59.2452 27.8145L59.8905 28.1649ZM60.6753 31.1228L60.3469 31.7796V31.7796L60.6753 31.1228ZM62.764 31.1953L63.0301 31.8797L62.764 31.1953ZM63.5367 30.664L64.0906 30.182L63.5558 29.5674L62.9999 30.163L63.5367 30.664ZM64.3456 31.5937L64.9031 32.0716L65.3158 31.5901L64.8996 31.1117L64.3456 31.5937ZM63.2469 32.3785L63.524 33.0585L63.5302 33.0559L63.2469 32.3785ZM61.7498 31.9098C61.1309 31.9098 60.6236 31.7886 60.2064 31.5707L59.5264 32.8724C60.1877 33.2179 60.936 33.3784 61.7498 33.3784V31.9098ZM60.218 31.5769C59.7971 31.3473 59.481 31.0435 59.2534 30.662L57.9923 31.4146C58.3602 32.0312 58.8732 32.5162 59.5148 32.8662L60.218 31.5769ZM59.2578 30.6696C59.0396 30.2937 58.9225 29.8559 58.9225 29.336H57.4539C57.4539 30.0878 57.6265 30.7848 57.9878 31.407L59.2578 30.6696ZM58.9225 29.336C58.9225 28.8024 59.0381 28.3642 59.2477 27.9991L57.9738 27.2682C57.6199 27.885 57.4539 28.5818 57.4539 29.336H58.9225ZM59.2458 28.0023C59.4704 27.6155 59.7705 27.319 60.1549 27.102L59.433 25.8231C58.8193 26.1695 58.3306 26.6537 57.9757 27.2649L59.2458 28.0023ZM60.1505 27.1044C60.5369 26.8898 60.9873 26.7742 61.5204 26.7742V25.3056C60.7657 25.3056 60.0651 25.4718 59.4373 25.8206L60.1505 27.1044ZM61.5204 26.7742C62.038 26.7742 62.4718 26.886 62.8411 27.0918L63.5561 25.809C62.9435 25.4676 62.2585 25.3056 61.5204 25.3056V26.7742ZM62.8411 27.0918C63.2117 27.2984 63.5016 27.5866 63.7182 27.9705L64.9971 27.2485C64.6504 26.6343 64.1675 26.1498 63.5561 25.809L62.8411 27.0918ZM63.7182 27.9705C63.9274 28.341 64.0459 28.7997 64.0459 29.3722H65.5146C65.5146 28.5924 65.3514 27.876 64.9971 27.2485L63.7182 27.9705ZM64.0459 29.3722C64.0459 29.4069 64.0437 29.4544 64.0375 29.5164L65.4988 29.6626C65.5087 29.5637 65.5146 29.4662 65.5146 29.3722H64.0459ZM64.0339 29.5895C64.0339 29.6457 64.0311 29.6949 64.0263 29.7378L65.4859 29.9C65.4972 29.798 65.5025 29.6943 65.5025 29.5895H64.0339ZM64.7561 29.0846H59.3834V30.5532H64.7561V29.0846ZM60.1177 29.8189V28.8168H58.6491V29.8189H60.1177ZM59.3834 29.5511H63.9593V28.0825H59.3834V29.5511ZM63.6151 28.1682L63.0235 28.4821L63.7118 29.7794L64.3034 29.4655L63.6151 28.1682ZM64.1018 29.1467C64.1123 28.6625 64.0118 28.2014 63.7758 27.7885L62.5007 28.5171C62.5867 28.6675 62.6391 28.8585 62.6335 29.1148L64.1018 29.1467ZM63.7758 27.7885C63.5498 27.3929 63.2341 27.0772 62.8385 26.8512L62.1099 28.1263C62.2778 28.2222 62.4048 28.3492 62.5007 28.5171L63.7758 27.7885ZM62.8465 26.8558C62.4449 26.6196 61.9948 26.513 61.5204 26.513V27.9816C61.7705 27.9816 61.9562 28.036 62.1019 28.1217L62.8465 26.8558ZM61.5204 26.513C61.0407 26.513 60.5857 26.6183 60.1782 26.8512L60.9068 28.1263C61.0627 28.0372 61.2597 27.9816 61.5204 27.9816V26.513ZM60.1702 26.8558C59.7785 27.0862 59.4703 27.4092 59.2486 27.8082L60.5324 28.5215C60.6327 28.3409 60.7591 28.2133 60.9148 28.1217L60.1702 26.8558ZM59.2452 27.8145C59.023 28.2238 58.9268 28.6832 58.9268 29.1669H60.3954C60.3954 28.878 60.4522 28.6694 60.5359 28.5152L59.2452 27.8145ZM58.9268 29.1669V29.4084H60.3954V29.1669H58.9268ZM58.9268 29.4084C58.9268 29.9113 59.0434 30.3859 59.2956 30.8099L60.5579 30.0594C60.4559 29.8878 60.3954 29.6783 60.3954 29.4084H58.9268ZM59.2956 30.8099C59.5474 31.2335 59.9043 31.5583 60.3469 31.7796L61.0037 30.4661C60.8024 30.3654 60.6602 30.2314 60.5579 30.0594L59.2956 30.8099ZM60.3469 31.7796C60.7862 31.9993 61.272 32.0986 61.786 32.0986V30.63C61.463 30.63 61.2083 30.5684 61.0037 30.4661L60.3469 31.7796ZM61.786 32.0986C62.2245 32.0986 62.6428 32.0303 63.0301 31.8797L62.4978 30.5109C62.3057 30.5856 62.072 30.63 61.786 30.63V32.0986ZM63.0301 31.8797C63.4291 31.7245 63.7776 31.4821 64.0735 31.1651L62.9999 30.163C62.845 30.329 62.6784 30.4407 62.4978 30.5109L63.0301 31.8797ZM62.9827 31.1461L63.7916 32.0757L64.8996 31.1117L64.0906 30.182L62.9827 31.1461ZM63.7881 31.1158C63.5786 31.3602 63.309 31.5566 62.9636 31.701L63.5302 33.0559C64.0703 32.8301 64.5331 32.5033 64.9031 32.0716L63.7881 31.1158ZM62.9699 31.6984C62.6389 31.8333 62.2369 31.9098 61.7498 31.9098V33.3784C62.3896 33.3784 62.9856 33.2778 63.524 33.0585L62.9699 31.6984ZM36.4165 40.3418L36.0828 40.9959L36.0881 40.9986L36.4165 40.3418ZM37.3582 41.2714L36.7117 41.6196L36.7145 41.6248L37.3582 41.2714ZM37.6963 46.5596V47.2939H38.4306V46.5596H37.6963ZM36.1871 46.5596H35.4528V47.2939H36.1871V46.5596ZM35.8128 41.7785L36.3625 41.2916L35.8128 41.7785ZM33.8569 41.5733L33.4969 40.9332L33.4882 40.9382L33.8569 41.5733ZM33.2653 42.2131L32.6123 41.8773L32.6085 41.8848L32.6048 41.8923L33.2653 42.2131ZM33.0601 46.5596V47.2939H33.7944V46.5596H33.0601ZM31.5509 46.5596H30.8166V47.2939H31.5509V46.5596ZM31.1766 41.7785L31.7263 41.2916L31.1766 41.7785ZM29.2207 41.5733L28.8607 40.9332L28.852 40.9382L29.2207 41.5733ZM28.6292 42.2131L27.9761 41.8773L27.9723 41.8848L27.9686 41.8923L28.6292 42.2131ZM28.4239 46.5596V47.2939H29.1582V46.5596H28.4239ZM26.9147 46.5596H26.1804V47.2939H26.9147V46.5596ZM26.9147 40.1124V39.3781H26.1804V40.1124H26.9147ZM28.3515 40.1124H29.0858V39.3781H28.3515V40.1124ZM28.3515 41.8268L27.6947 42.1552L29.0858 41.8268H28.3515ZM28.0979 41.3197L27.4462 40.9813L27.2738 41.3134L27.4411 41.6481L28.0979 41.3197ZM29.0396 40.3659L28.7013 39.7142L28.6961 39.7169L29.0396 40.3659ZM32.0338 40.4867L31.624 41.0959L31.6291 41.0993L32.0338 40.4867ZM32.9273 41.8389L32.6866 42.5326L33.9545 42.9725L33.6413 41.6675L32.9273 41.8389ZM32.3357 41.6336L31.6619 41.3417L31.3472 42.0679L32.095 42.3274L32.3357 41.6336ZM33.374 40.4746L33.7518 41.1042L33.374 40.4746ZM35.0522 40.7742C35.4703 40.7742 35.8074 40.8554 36.0828 40.9959L36.7502 39.6877C36.2368 39.4257 35.6644 39.3056 35.0522 39.3056V40.7742ZM36.0881 40.9986C36.3474 41.1282 36.5537 41.3262 36.7117 41.6196L38.0048 40.9233C37.712 40.3795 37.2905 39.9578 36.7449 39.685L36.0881 40.9986ZM36.7145 41.6248C36.8617 41.8928 36.962 42.2908 36.962 42.8651H38.4306C38.4306 42.1355 38.3055 41.471 38.0019 40.918L36.7145 41.6248ZM36.962 42.8651V46.5596H38.4306V42.8651H36.962ZM37.6963 45.8253H36.1871V47.2939H37.6963V45.8253ZM36.9214 46.5596V43.0583H35.4528V46.5596H36.9214ZM36.9214 43.0583C36.9214 42.3973 36.7795 41.7624 36.3625 41.2916L35.2631 42.2654C35.3452 42.3581 35.4528 42.5763 35.4528 43.0583H36.9214ZM36.3625 41.2916C35.9411 40.8159 35.3607 40.6216 34.7383 40.6216V42.0902C35.0495 42.0902 35.1855 42.1777 35.2631 42.2654L36.3625 41.2916ZM34.7383 40.6216C34.2972 40.6216 33.8768 40.7196 33.4969 40.9333L34.2169 42.2133C34.3522 42.1372 34.5194 42.0902 34.7383 42.0902V40.6216ZM33.4882 40.9382C33.1055 41.1605 32.8149 41.4834 32.6123 41.8773L33.9183 42.549C34.0055 42.3794 34.1093 42.2758 34.2257 42.2083L33.4882 40.9382ZM32.6048 41.8923C32.4044 42.305 32.3258 42.7824 32.3258 43.2877H33.7944C33.7944 42.9236 33.8526 42.6847 33.9259 42.534L32.6048 41.8923ZM32.3258 43.2877V46.5596H33.7944V43.2877H32.3258ZM33.0601 45.8253H31.5509V47.2939H33.0601V45.8253ZM32.2852 46.5596V43.0583H30.8166V46.5596H32.2852ZM32.2852 43.0583C32.2852 42.3973 32.1433 41.7624 31.7263 41.2916L30.6269 42.2654C30.709 42.3581 30.8166 42.5763 30.8166 43.0583H32.2852ZM31.7263 41.2916C31.3049 40.8159 30.7245 40.6216 30.1021 40.6216V42.0902C30.4133 42.0902 30.5493 42.1777 30.6269 42.2654L31.7263 41.2916ZM30.1021 40.6216C29.661 40.6216 29.2406 40.7196 28.8607 40.9333L29.5808 42.2133C29.716 42.1372 29.8832 42.0902 30.1021 42.0902V40.6216ZM28.852 40.9382C28.4693 41.1605 28.1787 41.4834 27.9761 41.8773L29.2822 42.549C29.3694 42.3794 29.4731 42.2758 29.5895 42.2083L28.852 40.9382ZM27.9686 41.8923C27.7682 42.305 27.6896 42.7824 27.6896 43.2877H29.1582C29.1582 42.9236 29.2165 42.6847 29.2897 42.534L27.9686 41.8923ZM27.6896 43.2877V46.5596H29.1582V43.2877H27.6896ZM28.4239 45.8253H26.9147V47.2939H28.4239V45.8253ZM27.649 46.5596V40.1124H26.1804V46.5596H27.649ZM26.9147 40.8467H28.3515V39.3781H26.9147V40.8467ZM27.6172 40.1124V41.8268H29.0858V40.1124H27.6172ZM29.0082 41.4984L28.7547 40.9913L27.4411 41.6481L27.6947 42.1552L29.0082 41.4984ZM28.7496 41.6581C28.8993 41.3698 29.1068 41.1613 29.3832 41.0149L28.6961 39.7169C28.1516 40.0052 27.7312 40.4325 27.4462 40.9813L28.7496 41.6581ZM29.378 41.0176C29.6794 40.8611 30.0358 40.7742 30.4643 40.7742V39.3056C29.8304 39.3056 29.2369 39.4361 28.7013 39.7142L29.378 41.0176ZM30.4643 40.7742C30.9418 40.7742 31.3179 40.89 31.624 41.0959L32.4437 39.8774C31.8644 39.4877 31.1941 39.3056 30.4643 39.3056V40.7742ZM31.6291 41.0993C31.9013 41.2792 32.1048 41.5586 32.2132 42.0102L33.6413 41.6675C33.46 40.9118 33.0679 40.2897 32.4386 39.874L31.6291 41.0993ZM33.168 41.1451L32.5764 40.9399L32.095 42.3274L32.6866 42.5326L33.168 41.1451ZM33.0095 41.9256C33.1534 41.5934 33.3906 41.321 33.7518 41.1042L32.9962 39.8449C32.3915 40.2077 31.9365 40.7079 31.6619 41.3417L33.0095 41.9256ZM33.7518 41.1042C34.1064 40.8915 34.5319 40.7742 35.0522 40.7742V39.3056C34.3008 39.3056 33.6074 39.4782 32.9962 39.8449L33.7518 41.1042ZM40.7715 46.2215L40.4115 46.8616L40.4192 46.8658L40.7715 46.2215ZM39.5521 45.0383L38.9215 45.4146L39.5521 45.0383ZM39.5521 41.6336L40.1799 42.0145L40.1826 42.0099L39.5521 41.6336ZM40.7715 40.4625L41.1238 41.1068L40.7715 40.4625ZM44.309 40.4625L43.9567 41.1068L43.9609 41.109L44.309 40.4625ZM45.5284 41.6216L44.896 41.9948L44.9006 42.0024L45.5284 41.6216ZM45.5284 45.0383L44.8978 44.662L44.8934 44.6696L45.5284 45.0383ZM44.309 46.2215L44.6613 46.8658L44.6648 46.8639L44.309 46.2215ZM43.5242 45.1108L43.1676 44.4689L43.5242 45.1108ZM44.2003 44.4105L43.5576 44.0553L43.554 44.0619L43.5505 44.0685L44.2003 44.4105ZM44.2003 42.2614L43.5505 42.6034L43.556 42.6138L43.5617 42.6239L44.2003 42.2614ZM43.5242 41.5612L43.8808 40.9193L43.5242 41.5612ZM41.5563 41.5612L41.1996 40.9192L41.1919 40.9236L41.5563 41.5612ZM40.8802 42.2614L41.5188 42.6239L41.5229 42.6166L40.8802 42.2614ZM40.8802 44.4105L40.2375 44.7657L40.8802 44.4105ZM41.5563 45.1108L41.1919 45.7484L41.1997 45.7527L41.5563 45.1108ZM42.5342 45.9098C41.9818 45.9098 41.5181 45.7929 41.1238 45.5773L40.4192 46.8658C41.0552 47.2136 41.7666 47.3784 42.5342 47.3784V45.9098ZM41.1315 45.5815C40.726 45.3534 40.4137 45.0491 40.1826 44.662L38.9215 45.4146C39.2861 46.0256 39.7867 46.5101 40.4115 46.8615L41.1315 45.5815ZM40.1826 44.662C39.959 44.2873 39.8397 43.8522 39.8397 43.336H38.3711C38.3711 44.0915 38.5495 44.7912 38.9215 45.4146L40.1826 44.662ZM39.8397 43.336C39.8397 42.8096 39.9599 42.3771 40.1799 42.0144L38.9242 41.2528C38.5486 41.8721 38.3711 42.5745 38.3711 43.336H39.8397ZM40.1826 42.0099C40.4126 41.6247 40.7224 41.3263 41.1238 41.1068L40.4192 39.8182C39.7903 40.1622 39.2872 40.6445 38.9215 41.2573L40.1826 42.0099ZM41.1238 41.1068C41.5181 40.8912 41.9818 40.7742 42.5342 40.7742V39.3056C41.7666 39.3056 41.0552 39.4704 40.4192 39.8182L41.1238 41.1068ZM42.5342 40.7742C43.0963 40.7742 43.5637 40.8919 43.9567 41.1068L44.6613 39.8182C44.024 39.4697 43.3082 39.3056 42.5342 39.3056V40.7742ZM43.9609 41.109C44.3714 41.3301 44.6773 41.6241 44.896 41.9948L46.1608 41.2483C45.8 40.637 45.293 40.1584 44.6571 39.816L43.9609 41.109ZM44.9006 42.0024C45.1197 42.3636 45.2408 42.7997 45.2408 43.336H46.7094C46.7094 42.5683 46.5328 41.8614 46.1563 41.2407L44.9006 42.0024ZM45.2408 43.336C45.2408 43.8522 45.1215 44.2873 44.8979 44.662L46.159 45.4146C46.531 44.7912 46.7094 44.0915 46.7094 43.336H45.2408ZM44.8934 44.6696C44.6728 45.0496 44.3647 45.3512 43.9532 45.5791L44.6648 46.8639C45.2996 46.5123 45.8045 46.0252 46.1634 45.407L44.8934 44.6696ZM43.9567 45.5773C43.5637 45.7922 43.0963 45.9098 42.5342 45.9098V47.3784C43.3082 47.3784 44.024 47.2143 44.6613 46.8658L43.9567 45.5773ZM42.5342 46.0865C43.0144 46.0865 43.4697 45.9811 43.8808 45.7527L43.1676 44.4689C42.9993 44.5624 42.7946 44.6179 42.5342 44.6179V46.0865ZM43.8808 45.7527C44.3009 45.5193 44.6257 45.179 44.8501 44.7525L43.5505 44.0685C43.4531 44.2537 43.3271 44.3803 43.1676 44.4689L43.8808 45.7527ZM44.843 44.7657C45.0819 44.3335 45.1882 43.8489 45.1882 43.336H43.7196C43.7196 43.644 43.6569 43.8758 43.5576 44.0553L44.843 44.7657ZM45.1882 43.336C45.1882 42.8184 45.0832 42.3294 44.839 41.899L43.5617 42.6239C43.6555 42.7891 43.7196 43.0164 43.7196 43.336H45.1882ZM44.8501 41.9194C44.6257 41.4929 44.3009 41.1527 43.8808 40.9193L43.1676 42.2031C43.3271 42.2917 43.4531 42.4182 43.5505 42.6034L44.8501 41.9194ZM43.8808 40.9193C43.4721 40.6922 43.0214 40.5854 42.5463 40.5854V42.054C42.7956 42.054 42.9969 42.1082 43.1676 42.2031L43.8808 40.9193ZM42.5463 40.5854C42.0661 40.5854 41.6108 40.6909 41.1997 40.9193L41.9129 42.2031C42.0812 42.1095 42.2859 42.054 42.5463 42.054V40.5854ZM41.1919 40.9236C40.7843 41.1566 40.4664 41.492 40.2375 41.9063L41.5229 42.6166C41.632 42.4192 41.7648 42.2878 41.9206 42.1987L41.1919 40.9236ZM40.2415 41.899C39.9973 42.3294 39.8923 42.8184 39.8923 43.336H41.3609C41.3609 43.0164 41.425 42.7891 41.5188 42.6239L40.2415 41.899ZM39.8923 43.336C39.8923 43.8489 39.9986 44.3335 40.2375 44.7657L41.5229 44.0553C41.4236 43.8758 41.3609 43.644 41.3609 43.336H39.8923ZM40.2375 44.7657C40.4664 45.18 40.7843 45.5154 41.1919 45.7483L41.9206 44.4732C41.7648 44.3842 41.632 44.2527 41.5229 44.0553L40.2375 44.7657ZM41.1997 45.7527C41.6084 45.9798 42.0591 46.0865 42.5342 46.0865V44.6179C42.2849 44.6179 42.0836 44.5637 41.9129 44.4689L41.1997 45.7527ZM52.4529 40.3418L52.1245 40.9986L52.1297 41.0011L52.4529 40.3418ZM53.4188 41.2714L52.7774 41.6291L52.7804 41.6344L53.4188 41.2714ZM53.7689 46.5596V47.2939H54.5032V46.5596H53.7689ZM52.2597 46.5596H51.5254V47.2939H52.2597V46.5596ZM51.8492 41.7785L51.3149 42.2823L51.3225 42.2902L51.8492 41.7785ZM49.7847 41.5733L50.1282 42.2222L49.7847 41.5733ZM49.1448 42.2252L48.4953 41.8825L48.4918 41.8894L49.1448 42.2252ZM48.9275 46.5596V47.2939H49.6618V46.5596H48.9275ZM47.4183 46.5596H46.684V47.2939H47.4183V46.5596ZM47.4183 40.1124V39.3781H46.684V40.1124H47.4183ZM48.855 40.1124H49.5893V39.3781H48.855V40.1124ZM48.855 41.8509L48.1923 42.1672L49.5893 41.8509H48.855ZM48.6015 41.3197L47.9578 40.9663L47.7766 41.2963L47.9388 41.636L48.6015 41.3197ZM49.5794 40.378L49.9127 41.0323L49.9174 41.0299L49.5794 40.378ZM51.0765 40.7742C51.4942 40.7742 51.8379 40.8552 52.1245 40.9986L52.7813 39.685C52.263 39.4259 51.6891 39.3056 51.0765 39.3056V40.7742ZM52.1297 41.0011C52.3992 41.1332 52.6131 41.3345 52.7774 41.6291L54.0601 40.9138C53.7575 40.3713 53.3276 39.9528 52.7761 39.6824L52.1297 41.0011ZM52.7804 41.6344C52.9315 41.9 53.0346 42.2942 53.0346 42.8651H54.5032C54.5032 42.1321 54.3729 41.4638 54.0571 40.9085L52.7804 41.6344ZM53.0346 42.8651V46.5596H54.5032V42.8651H53.0346ZM53.7689 45.8253H52.2597V47.2939H53.7689V45.8253ZM52.994 46.5596V43.0583H51.5254V46.5596H52.994ZM52.994 43.0583C52.994 42.3823 52.8328 41.7372 52.3759 41.2668L51.3225 42.2902C51.4129 42.3832 51.5254 42.5913 51.5254 43.0583H52.994ZM52.3835 41.2748C51.9463 40.8111 51.3582 40.6216 50.7264 40.6216V42.0902C51.0604 42.0902 51.2209 42.1825 51.3149 42.2823L52.3835 41.2748ZM50.7264 40.6216C50.2698 40.6216 49.8349 40.7158 49.4411 40.9243L50.1282 42.2222C50.2817 42.141 50.4746 42.0902 50.7264 42.0902V40.6216ZM49.4411 40.9243C49.0293 41.1423 48.7129 41.4702 48.4954 41.8825L49.7942 42.568C49.8825 42.4007 49.9927 42.294 50.1282 42.2222L49.4411 40.9243ZM48.4918 41.8894C48.2773 42.3063 48.1931 42.7895 48.1931 43.2998H49.6618C49.6618 42.9407 49.7224 42.7076 49.7978 42.5611L48.4918 41.8894ZM48.1931 43.2998V46.5596H49.6618V43.2998H48.1931ZM48.9275 45.8253H47.4183V47.2939H48.9275V45.8253ZM48.1526 46.5596V40.1124H46.684V46.5596H48.1526ZM47.4183 40.8467H48.855V39.3781H47.4183V40.8467ZM48.1207 40.1124V41.8509H49.5893V40.1124H48.1207ZM49.5177 41.5347L49.2642 41.0034L47.9388 41.636L48.1923 42.1672L49.5177 41.5347ZM49.2451 41.6731C49.3979 41.3948 49.6143 41.1843 49.9127 41.0323L49.2461 39.7237C48.6913 40.0063 48.2557 40.4236 47.9578 40.9663L49.2451 41.6731ZM49.9174 41.0299C50.2329 40.8663 50.6129 40.7742 51.0765 40.7742V39.3056C50.4133 39.3056 49.7952 39.4389 49.2414 39.7261L49.9174 41.0299ZM56.4681 46.1008L55.96 46.631L55.9659 46.6365L56.4681 46.1008ZM55.8886 38.6877V37.9534H55.1543V38.6877H55.8886ZM57.3978 38.6877H58.1321V37.9534H57.3978V38.6877ZM57.6272 45.147L57.0827 45.6396L57.089 45.6466L57.0954 45.6534L57.6272 45.147ZM59.1364 45.1349L59.8197 44.8662L59.4586 43.9479L58.6827 44.5575L59.1364 45.1349ZM59.5589 46.2094L60.0239 46.7778L60.4382 46.4388L60.2423 45.9407L59.5589 46.2094ZM58.907 46.5354L59.1058 47.2423L58.907 46.5354ZM54.8262 41.368H54.0918V42.1023H54.8262V41.368ZM54.8262 40.1607V39.4264H54.0918V40.1607H54.8262ZM59.1243 40.1607H59.8586V39.4264H59.1243V40.1607ZM59.1243 41.368V42.1023H59.8586V41.368H59.1243ZM58.1101 45.9098C57.524 45.9098 57.18 45.7616 56.9704 45.5651L55.9659 46.6365C56.529 47.1644 57.2796 47.3784 58.1101 47.3784V45.9098ZM56.9762 45.5706C56.7784 45.381 56.6229 45.0575 56.6229 44.4709H55.1543C55.1543 45.317 55.3852 46.08 55.9601 46.6309L56.9762 45.5706ZM56.6229 44.4709V38.6877H55.1543V44.4709H56.6229ZM55.8886 39.422H57.3978V37.9534H55.8886V39.422ZM56.6635 38.6877V44.4347H58.1321V38.6877H56.6635ZM56.6635 44.4347C56.6635 44.8594 56.7709 45.2951 57.0827 45.6396L58.1717 44.6543C58.1715 44.6541 58.1634 44.6461 58.1541 44.617C58.1439 44.5853 58.1321 44.5278 58.1321 44.4347H56.6635ZM57.0954 45.6534C57.4231 45.9975 57.8533 46.1348 58.2912 46.1348V44.6662C58.2234 44.6662 58.1887 44.656 58.1759 44.6511C58.1658 44.6473 58.1628 44.6446 58.1589 44.6406L57.0954 45.6534ZM58.2912 46.1348C58.7631 46.1348 59.213 46.0085 59.59 45.7123L58.6827 44.5575C58.6089 44.6155 58.4955 44.6662 58.2912 44.6662V46.1348ZM58.453 45.4036L58.8756 46.4782L60.2423 45.9407L59.8197 44.8662L58.453 45.4036ZM59.0939 45.6411C59.0072 45.7121 58.8847 45.7789 58.7082 45.8285L59.1058 47.2423C59.4444 47.1471 59.7565 46.9966 60.0239 46.7778L59.0939 45.6411ZM58.7082 45.8285C58.5168 45.8824 58.3181 45.9098 58.1101 45.9098V47.3784C58.4494 47.3784 58.782 47.3334 59.1058 47.2423L58.7082 45.8285ZM55.5605 41.368V40.1607H54.0918V41.368H55.5605ZM54.8262 40.895H59.1243V39.4264H54.8262V40.895ZM58.39 40.1607V41.368H59.8586V40.1607H58.39ZM59.1243 40.6337H54.8262V42.1023H59.1243V40.6337ZM65.835 40.3418L65.5066 40.9986L65.5118 41.0011L65.835 40.3418ZM66.8009 41.2714L66.1595 41.6291L66.1626 41.6344L66.8009 41.2714ZM67.151 46.5596V47.2939H67.8853V46.5596H67.151ZM65.6418 46.5596H64.9075V47.2939H65.6418V46.5596ZM65.2313 41.7785L64.697 42.2823L64.7046 42.2902L65.2313 41.7785ZM63.1668 41.5733L63.5104 42.2222L63.1668 41.5733ZM62.5269 42.2252L61.8775 41.8825L61.8739 41.8894L62.5269 42.2252ZM62.3096 46.5596V47.2939H63.0439V46.5596H62.3096ZM60.8004 46.5596H60.0661V47.2939H60.8004V46.5596ZM60.8004 37.6011V36.8668H60.0661V37.6011H60.8004ZM62.3096 37.6011H63.0439V36.8668H62.3096V37.6011ZM62.3096 41.8509L61.6837 42.235L63.0439 44.4516V41.8509H62.3096ZM61.9836 41.3197L61.3399 40.9663L61.1347 41.3402L61.3577 41.7038L61.9836 41.3197ZM62.9616 40.378L63.2949 41.0323L63.2996 41.0299L62.9616 40.378ZM64.4587 40.7742C64.8764 40.7742 65.22 40.8552 65.5066 40.9986L66.1634 39.685C65.6451 39.4259 65.0712 39.3056 64.4587 39.3056V40.7742ZM65.5118 41.0011C65.7813 41.1332 65.9953 41.3345 66.1596 41.6291L67.4422 40.9138C67.1397 40.3713 66.7097 39.9528 66.1582 39.6824L65.5118 41.0011ZM66.1626 41.6344C66.3136 41.9 66.4167 42.2942 66.4167 42.8651H67.8853C67.8853 42.1321 67.755 41.4638 67.4392 40.9085L66.1626 41.6344ZM66.4167 42.8651V46.5596H67.8853V42.8651H66.4167ZM67.151 45.8253H65.6418V47.2939H67.151V45.8253ZM66.3762 46.5596V43.0583H64.9075V46.5596H66.3762ZM66.3762 43.0583C66.3762 42.3823 66.215 41.7372 65.7581 41.2668L64.7046 42.2902C64.7951 42.3832 64.9075 42.5913 64.9075 43.0583H66.3762ZM65.7656 41.2748C65.3285 40.8111 64.7403 40.6216 64.1085 40.6216V42.0902C64.4426 42.0902 64.603 42.1825 64.6971 42.2823L65.7656 41.2748ZM64.1085 40.6216C63.652 40.6216 63.2171 40.7158 62.8232 40.9243L63.5104 42.2222C63.6638 42.141 63.8568 42.0902 64.1085 42.0902V40.6216ZM62.8232 40.9243C62.4114 41.1423 62.0951 41.4702 61.8775 41.8825L63.1763 42.568C63.2646 42.4007 63.3749 42.294 63.5104 42.2222L62.8232 40.9243ZM61.8739 41.8894C61.6595 42.3063 61.5753 42.7895 61.5753 43.2998H63.0439C63.0439 42.9407 63.1046 42.7076 63.1799 42.5611L61.8739 41.8894ZM61.5753 43.2998V46.5596H63.0439V43.2998H61.5753ZM62.3096 45.8253H60.8004V47.2939H62.3096V45.8253ZM61.5347 46.5596V37.6011H60.0661V46.5596H61.5347ZM60.8004 38.3354H62.3096V36.8668H60.8004V38.3354ZM61.5753 37.6011V41.8509H63.0439V37.6011H61.5753ZM62.9355 41.4669L62.6095 40.9357L61.3577 41.7038L61.6837 42.235L62.9355 41.4669ZM62.6273 41.6731C62.7801 41.3948 62.9965 41.1843 63.2949 41.0323L62.6282 39.7237C62.0735 40.0063 61.6379 40.4236 61.3399 40.9663L62.6273 41.6731ZM63.2996 41.0299C63.615 40.8663 63.995 40.7742 64.4587 40.7742V39.3056C63.7954 39.3056 63.1774 39.4389 62.6235 39.7261L63.2996 41.0299Z" fill="white"/>
<defs>
<clipPath id="clip0_66_1541">
<rect width="94" height="74.1651" fill="white"/>
</clipPath>
</defs>
</svg>
